<svg xmlns="http://www.w3.org/2000/svg" width="31" height="30" viewBox="0 0 31 30">
  <metadata><?xpacket begin="﻿" id="W5M0MpCehiHzreSzNTczkc9d"?>
<x:xmpmeta xmlns:x="adobe:ns:meta/" x:xmptk="Adobe XMP Core 5.6-c138 79.159824, 2016/09/14-01:09:01        ">
   <rdf:RDF xmlns:rdf="http://www.w3.org/1999/02/22-rdf-syntax-ns#">
      <rdf:Description rdf:about=""/>
   </rdf:RDF>
</x:xmpmeta>
                                                                                                    
                                                                                                    
                                                                                                    
                                                                                                    
                                                                                                    
                                                                                                    
                                                                                                    
                                                                                                    
                                                                                                    
                                                                                                    
                                                                                                    
                                                                                                    
                                                                                                    
                                                                                                    
                                                                                                    
                                                                                                    
                                                                                                    
                                                                                                    
                                                                                                    
                                                                                                    
                           
<?xpacket end="w"?></metadata>
<defs>
    <style>
      .cls-1 {
        fill: #00b7ca;
        fill-rule: evenodd;
      }
    </style>
  </defs>
  <path id="icono_instagram_cesticom" data-name="icono instagram cesticom" class="cls-1" d="M30.743,15.083v0.672H30.688V16.2H30.632v0.392c-0.135.454-.193,1.059-0.332,1.511l-0.055.56H30.19v0.224H30.135v0.224H30.079v0.224H30.024V19.56H29.969v0.28c-0.232.687-.423,1.5-0.664,2.183v0.224H29.25v0.168H29.194v0.168H29.139v0.168H29.084v0.168H29.028v0.224H28.973l-0.055.336H28.862v0.168H28.807v0.168H28.752v0.168H28.7l-0.111.56H28.53l-0.055.336H28.42l-0.055.336H28.309l-0.111.5H28.143v0.224H28.088v0.168H28.033v0.168H27.977v0.168H27.922v0.168H27.867l-0.055.336H27.756v0.224H27.7V27.34H27.645v0.168H27.59v0.168H27.535v0.168H27.479l-0.055.336H27.369V28.4H27.313l-0.055.336H27.2a4.622,4.622,0,0,1-1.328.056,0.914,0.914,0,0,1-.5.056H23.994v0.056H22.169v0.056H20.454a9.376,9.376,0,0,1-2.1.056,4.948,4.948,0,0,1-1.106-.056c-0.335-.1-0.86.03-1.162-0.056l-1.494-.056V28.8H14.037V28.739h-0.5V28.684l-0.664-.056V28.572H12.544V28.516H12.267V28.46H12.046V28.4H11.824V28.348H11.6V28.292l-0.442-.056V28.18H10.995V28.124H10.829V28.068H10.663V28.012H10.5V27.956H10.331V27.9L10,27.844V27.788H9.888V27.732H9.722V27.676L9.5,27.62V27.564H9.335V27.508L9,27.4V27.34H8.893V27.284l-0.5-.168L8.339,27H8.229V26.948H8.118V26.893H8.007V26.837H7.9l-0.055-.112L7.62,26.669V26.613l-0.166-.056L7.4,26.445H7.288l-0.055-.112H7.122V26.277l-0.166-.056L6.9,26.109H6.79L6.68,25.941H6.569l-0.111-.168H6.348l-0.166-.224H6.071l-0.221-.28H5.739l-0.553-.616H5.076L4.8,24.318l-0.111-.056V24.15l-0.553-.5V23.534L3.8,23.254l-0.055-.168-0.166-.112V22.862l-0.166-.112V22.638l-0.111-.056V22.471l-0.166-.112V22.247l-0.111-.056-0.055-.168H2.918L2.863,21.8H2.808l-0.055-.168-0.111-.056-0.055-.224L2.476,21.3V21.183H2.42V21.071H2.365V20.959H2.31V20.848H2.255V20.735H2.2V20.623H2.144V20.512H2.089V20.4H2.033V20.288H1.978l-0.111-.336H1.812V19.784H1.757V19.672H1.7V19.5H1.646V19.392H1.591l-0.055-.28H1.48V18.889H1.425V18.721H1.369V18.553H1.314V18.385H1.259V18.217H1.2l-0.055-.5A9.918,9.918,0,0,1,.816,14.8l0.055-1.679H0.927V12.731H0.982V12.4H1.037V12.06H1.093V11.836H1.148v-0.28H1.2v-0.28H1.259V11.052H1.314l0.111-.56H1.48V10.325H1.535V10.157H1.591l0.055-.336H1.7V9.709H1.757l0.055-.336H1.867V9.261H1.922V9.094H1.978l0.111-.336H2.144V8.646H2.2V8.534H2.255V8.422H2.31V8.31H2.365V8.2H2.42V8.086H2.476V7.974H2.531V7.862H2.586V7.75L2.7,7.694,2.752,7.47l0.111-.056L2.918,7.19H2.974l0.055-.168,0.111-.056V6.855l0.166-.112V6.631l0.111-.056V6.463l0.111-.056,0.055-.168,0.166-.112V6.015L3.914,5.9V5.847l0.111-.056V5.679l0.5-.448V5.119l0.166-.112L5.076,4.56H5.186l0.055-.112H5.3l0.332-.392H5.739l0.221-.28H6.071l0.166-.224H6.348l0.111-.168H6.569l0.055-.112H6.735L6.846,3.1H6.956l0.055-.112H7.122l0.111-.168H7.344L7.4,2.713,7.62,2.657V2.6l0.166-.056,0.055-.112,0.221-.056,0.055-.112,0.221-.056L8.395,2.1H8.505V2.041H8.616V1.985H8.727V1.929H8.837V1.873H8.948V1.817H9.059V1.761H9.169V1.705H9.28V1.649H9.39V1.593l0.332-.112V1.426H9.888V1.369H10V1.313h0.166V1.258h0.111V1.2h0.166V1.146h0.111V1.09l0.332-.056V0.978H11.05V0.922h0.166V0.866h0.166V0.81h0.166V0.754h0.221c0.35-.121.8-0.225,1.162-0.336h0.332V0.362h0.443V0.306h0.443V0.25A2.1,2.1,0,0,0,14.812.194a16.283,16.283,0,0,1,5.7.727h0.221V0.978H20.9V1.034h0.166V1.09h0.166V1.146L21.56,1.2V1.258h0.111V1.313L22,1.369V1.426l0.221,0.056V1.537h0.111V1.593H22.5V1.649l0.332,0.112V1.817h0.111V1.873h0.111V1.929h0.111V1.985h0.11V2.041h0.111V2.1H23.5V2.153h0.111l0.055,0.112,0.221,0.056,0.055,0.112L24.16,2.489V2.545L24.326,2.6c0.074,0.149.018,0.112,0.166,0.112V2.769l0.166,0.056,0.055,0.112h0.111L24.935,3.1h0.111l0.111,0.168h0.111L25.377,3.44h0.111l0.221,0.28A7.3,7.3,0,0,1,27.369,5.4l0.387,0.336V5.847l0.166,0.112,0.055,0.168,0.111,0.056V6.295l0.166,0.112V6.519l0.111,0.056V6.687l0.111,0.056L28.53,6.911h0.055l0.055,0.224L28.752,7.19l0.055,0.224L28.918,7.47V7.582h0.055V7.694h0.055V7.806h0.055V7.918l0.111,0.056V8.086H29.25V8.2L29.36,8.254V8.366h0.055V8.478h0.055V8.59h0.055V8.7h0.055V8.814h0.055l0.111,0.336H29.8V9.317h0.055V9.429h0.055l0.608,1.959v0.28h0.055v0.28h0.055V12.34h0.055v0.392h0.055v0.616H30.8A7.207,7.207,0,0,1,30.743,15.083Zm-5.787-4.131a5.175,5.175,0,0,0-1.407-3.719,5.034,5.034,0,0,0-3.7-1.446H12.6a4.861,4.861,0,0,0-5.1,5.165v7.3a5.182,5.182,0,0,0,1.47,3.8,5.109,5.109,0,0,0,3.675,1.4h7.169a4.872,4.872,0,0,0,5.144-5.165V10.951ZM19.812,21.828H12.643a3.549,3.549,0,0,1-2.555-.942,3.59,3.59,0,0,1-.982-2.637v-7.3a3.584,3.584,0,0,1,.941-2.6A3.5,3.5,0,0,1,12.6,7.413h7.25a3.476,3.476,0,0,1,2.556.966,3.578,3.578,0,0,1,.941,2.573v7.337a3.557,3.557,0,0,1-.954,2.6A3.576,3.576,0,0,1,19.812,21.828Zm-3.585-11.8a4.546,4.546,0,1,0,4.491,4.545A4.524,4.524,0,0,0,16.228,10.025Zm4.661-1.143a1.032,1.032,0,1,0,1.02,1.032A1.026,1.026,0,0,0,20.888,8.882Zm-4.661,8.608a2.919,2.919,0,1,1,2.884-2.919A2.905,2.905,0,0,1,16.228,17.489Z"/>
</svg>
