<svg xmlns="http://www.w3.org/2000/svg" width="31" height="30" viewBox="0 0 31 30">
  <metadata><?xpacket begin="﻿" id="W5M0MpCehiHzreSzNTczkc9d"?>
<x:xmpmeta xmlns:x="adobe:ns:meta/" x:xmptk="Adobe XMP Core 5.6-c138 79.159824, 2016/09/14-01:09:01        ">
   <rdf:RDF xmlns:rdf="http://www.w3.org/1999/02/22-rdf-syntax-ns#">
      <rdf:Description rdf:about=""/>
   </rdf:RDF>
</x:xmpmeta>
                                                                                                    
                                                                                                    
                                                                                                    
                                                                                                    
                                                                                                    
                                                                                                    
                                                                                                    
                                                                                                    
                                                                                                    
                                                                                                    
                                                                                                    
                                                                                                    
                                                                                                    
                                                                                                    
                                                                                                    
                                                                                                    
                                                                                                    
                                                                                                    
                                                                                                    
                                                                                                    
                           
<?xpacket end="w"?></metadata>
<defs>
    <style>
      .cls-1 {
        fill: #00b7ca;
        fill-rule: evenodd;
      }
    </style>
  </defs>
  <path id="icono_linkedin_cesticom" data-name="icono linkedin cesticom" class="cls-1" d="M30.272,15.832V16.5H30.217v0.448H30.161v0.392c-0.135.454-.193,1.059-0.332,1.511l-0.055.56H29.719v0.224H29.663v0.224H29.608v0.224H29.553V20.31H29.5v0.28c-0.232.687-.423,1.5-0.664,2.183V23H28.779v0.168H28.723v0.168H28.668V23.5H28.613v0.168H28.557v0.224H28.5l-0.055.336H28.391V24.4H28.336v0.168H28.281v0.168H28.225l-0.111.56H28.059L28,25.626H27.949l-0.055.336H27.838l-0.111.5H27.672V26.69H27.617v0.168H27.562v0.168H27.506v0.168H27.451v0.168H27.4L27.34,27.7H27.285v0.224H27.23v0.168H27.174v0.168H27.119v0.168H27.064v0.168H27.008l-0.055.336H26.9v0.224H26.842l-0.055.336H26.732a4.628,4.628,0,0,1-1.328.056,0.917,0.917,0,0,1-.5.056H23.524v0.056H21.7v0.056H19.984a9.349,9.349,0,0,1-2.1.056,4.945,4.945,0,0,1-1.106-.056c-0.335-.1-0.861.03-1.162-0.056L14.12,29.6V29.544H13.567V29.488h-0.5V29.432l-0.664-.056V29.32H12.074V29.265H11.8V29.208H11.576V29.152H11.355V29.1H11.133V29.041l-0.443-.056V28.929H10.525V28.873H10.359V28.817H10.193V28.761H10.027V28.705H9.861V28.649l-0.332-.056V28.537H9.419V28.481H9.253V28.425l-0.221-.056V28.313H8.866V28.257l-0.332-.112V28.089H8.423V28.033l-0.5-.168L7.87,27.753H7.759V27.7H7.649V27.641H7.538V27.585H7.427l-0.055-.112-0.221-.056V27.362l-0.166-.056L6.93,27.194H6.819l-0.055-.112H6.653V27.026L6.487,26.97l-0.055-.112H6.321L6.211,26.69H6.1l-0.111-.168H5.879L5.713,26.3H5.6l-0.221-.28H5.27L4.717,25.4H4.606L4.33,25.067l-0.111-.056V24.9l-0.553-.5V24.284L3.334,24l-0.055-.168-0.166-.112V23.612L2.947,23.5V23.388l-0.111-.056V23.22l-0.166-.112V23L2.56,22.94,2.5,22.772H2.449l-0.055-.224H2.339l-0.055-.168-0.111-.056L2.117,22.1l-0.111-.056V21.933H1.951V21.821H1.9V21.709H1.841V21.6H1.786V21.485H1.73V21.373H1.675V21.261H1.619V21.149H1.564V21.037H1.509L1.4,20.7H1.343V20.534H1.288V20.422H1.232V20.254H1.177V20.142H1.122l-0.055-.279H1.011V19.638H0.956V19.47H0.9V19.3H0.845V19.134H0.79V18.966H0.735l-0.055-.5a9.921,9.921,0,0,1-.332-2.91q0.027-.84.055-1.679H0.458V13.482H0.513V13.146H0.569V12.81H0.624V12.586H0.679v-0.28H0.735v-0.28H0.79V11.8H0.845l0.111-.56H1.011V11.075H1.066V10.907H1.122l0.055-.336H1.232V10.46H1.288l0.055-.336H1.4V10.012H1.454V9.844H1.509l0.111-.336H1.675V9.4H1.73V9.284H1.786V9.172H1.841V9.06H1.9V8.948H1.951V8.836H2.007V8.725H2.062V8.613H2.117V8.5l0.111-.056,0.055-.224,0.111-.056,0.055-.224H2.5L2.56,7.773l0.111-.056V7.605l0.166-.112V7.381l0.111-.056V7.213l0.111-.056L3.113,6.99l0.166-.112V6.766l0.166-.112V6.6l0.111-.056V6.43l0.5-.448V5.87l0.166-.112,0.387-.448H4.717L4.772,5.2H4.828L5.16,4.807H5.27l0.221-.28H5.6L5.768,4.3H5.879l0.11-.168H6.1l0.055-.112H6.266l0.111-.168H6.487l0.055-.112H6.653l0.111-.168H6.874L6.93,3.464l0.221-.056V3.352L7.317,3.3l0.055-.112,0.221-.056,0.055-.112L7.87,2.96l0.055-.112H8.036V2.792H8.147V2.736h0.11V2.68H8.368V2.624H8.478V2.568H8.589V2.512H8.7V2.456H8.81V2.4H8.921V2.344l0.332-.112V2.176H9.419V2.121H9.529V2.064H9.7V2.009H9.806V1.953H9.972V1.9h0.11V1.841l0.332-.056V1.729H10.58V1.673h0.166V1.617h0.166V1.561h0.166V1.5H11.3c0.35-.121.8-0.225,1.162-0.336h0.332V1.113h0.443V1.057h0.442V1A2.1,2.1,0,0,0,14.342.945a16.27,16.27,0,0,1,5.7.727H20.26V1.729h0.166V1.785h0.166V1.841h0.166V1.9L21.09,1.953V2.009H21.2V2.064l0.332,0.056V2.176l0.221,0.056V2.288h0.111V2.344H22.03V2.4l0.332,0.112V2.568h0.111V2.624h0.111V2.68h0.11V2.736H22.8V2.792h0.111V2.848h0.111V2.9h0.111l0.055,0.112,0.221,0.056,0.055,0.112L23.69,3.24V3.3l0.166,0.056c0.074,0.149.018,0.112,0.166,0.112V3.52l0.166,0.056,0.055,0.112h0.111l0.111,0.168h0.111l0.111,0.168H24.8l0.111,0.168h0.111l0.221,0.28A7.309,7.309,0,0,1,26.9,6.15l0.387,0.336V6.6L27.451,6.71l0.055,0.168,0.111,0.056V7.046l0.166,0.112V7.27l0.111,0.056V7.437L28,7.493l0.055,0.168h0.055L28.17,7.885l0.111,0.056,0.055,0.224,0.111,0.056V8.333H28.5V8.445h0.055V8.557h0.055V8.669l0.111,0.056V8.836h0.055V8.948L28.889,9V9.116h0.055V9.228H29V9.34h0.055V9.452H29.11V9.564h0.055L29.276,9.9h0.055v0.168h0.055V10.18h0.055l0.608,1.959v0.28h0.055V12.7h0.055V13.09h0.055v0.392h0.055V14.1h0.055A7.2,7.2,0,0,1,30.272,15.832ZM8.638,22.754h3.336V12.314H8.638V22.754Zm1.69-15.473a1.8,1.8,0,1,0-.044,3.607h0.022A1.805,1.805,0,1,0,10.328,7.281ZM24,16.768c0-3.207-1.645-4.7-3.84-4.7a3.3,3.3,0,0,0-3.007,1.724V12.314H13.82c0.044,0.979,0,10.439,0,10.439h3.336v-5.83a2.463,2.463,0,0,1,.11-0.847,1.836,1.836,0,0,1,1.712-1.269c1.207,0,1.69.958,1.69,2.36v5.586H24V16.768Zm-6.869-2.94,0.022-.036v0.036H17.134Z"/>
</svg>
