<svg xmlns="http://www.w3.org/2000/svg" width="31" height="30" viewBox="0 0 31 30">
  <metadata><?xpacket begin="﻿" id="W5M0MpCehiHzreSzNTczkc9d"?>
<x:xmpmeta xmlns:x="adobe:ns:meta/" x:xmptk="Adobe XMP Core 5.6-c138 79.159824, 2016/09/14-01:09:01        ">
   <rdf:RDF xmlns:rdf="http://www.w3.org/1999/02/22-rdf-syntax-ns#">
      <rdf:Description rdf:about=""/>
   </rdf:RDF>
</x:xmpmeta>
                                                                                                    
                                                                                                    
                                                                                                    
                                                                                                    
                                                                                                    
                                                                                                    
                                                                                                    
                                                                                                    
                                                                                                    
                                                                                                    
                                                                                                    
                                                                                                    
                                                                                                    
                                                                                                    
                                                                                                    
                                                                                                    
                                                                                                    
                                                                                                    
                                                                                                    
                                                                                                    
                           
<?xpacket end="w"?></metadata>
<defs>
    <style>
      .cls-1 {
        fill: #00b7ca;
        fill-rule: evenodd;
      }
    </style>
  </defs>
  <path id="icono_facebook_cesticom" data-name="icono facebook cesticom" class="cls-1" d="M30.344,15.582v0.671H30.289V16.7H30.234v0.391c-0.135.454-.192,1.059-0.332,1.511l-0.055.559H29.791v0.223H29.736V19.61H29.681v0.224H29.625v0.224H29.57v0.28c-0.232.687-.423,1.5-0.663,2.182v0.224H28.851v0.168H28.8v0.168H28.741v0.168H28.685v0.168H28.63v0.224H28.575l-0.055.336H28.464v0.168H28.409V24.31H28.354v0.168H28.3l-0.111.559H28.133l-0.055.336H28.022l-0.055.336H27.911l-0.111.5H27.746v0.224H27.69V26.6H27.635v0.168H27.58V26.94H27.524v0.168H27.469l-0.055.336H27.358v0.224H27.3v0.168H27.248V28H27.193V28.17H27.137v0.168H27.082l-0.055.336H26.971V28.9H26.916l-0.055.336H26.806a4.633,4.633,0,0,1-1.327.056,0.917,0.917,0,0,1-.5.056H23.6V29.4H21.774v0.056H20.06a9.366,9.366,0,0,1-2.1.056,4.944,4.944,0,0,1-1.106-.056c-0.335-.1-0.86.03-1.161-0.056L14.2,29.345V29.289H13.646V29.233h-0.5V29.177l-0.663-.056V29.065H12.153V29.01H11.876V28.954H11.655V28.9H11.434V28.842H11.213V28.786l-0.442-.056V28.674H10.6V28.618H10.439V28.562H10.273V28.506H10.107V28.45H9.941V28.394l-0.332-.056V28.282H9.5V28.226H9.333V28.17l-0.221-.056V28.059H8.946V28l-0.332-.112V27.835H8.5V27.778l-0.5-.168L7.951,27.5H7.84V27.443H7.729V27.387H7.619V27.331H7.508l-0.055-.112-0.221-.056V27.107l-0.166-.056L7.011,26.94H6.9l-0.055-.112H6.734V26.772l-0.166-.056L6.513,26.6H6.4l-0.111-.168H6.181L6.07,26.268H5.96l-0.166-.224H5.683l-0.221-.28H5.352L4.8,25.149H4.688l-0.276-.335L4.3,24.758V24.646l-0.553-.5V24.03l-0.332-.28-0.055-.168L3.2,23.471V23.359l-0.166-.112V23.135l-0.111-.056V22.967l-0.166-.112V22.743l-0.111-.056L2.587,22.52H2.532L2.477,22.3H2.421l-0.055-.168-0.111-.056L2.2,21.848l-0.111-.056V21.68H2.034V21.568H1.979V21.457H1.924V21.345H1.868V21.233H1.813V21.121H1.758V21.009H1.7V20.9H1.647V20.785H1.592L1.481,20.45H1.426V20.282H1.371V20.17H1.315V20H1.26V19.89H1.2L1.15,19.61H1.094V19.386H1.039V19.219H0.984V19.051H0.928V18.883H0.873V18.715H0.818l-0.055-.5A9.918,9.918,0,0,1,.431,15.3l0.055-1.678H0.541V13.233H0.6V12.9H0.652V12.561H0.707V12.337H0.762v-0.28H0.818v-0.28H0.873V11.554H0.928l0.111-.559H1.094V10.827H1.15V10.659H1.2l0.055-.335H1.315V10.211H1.371l0.055-.336H1.481V9.764H1.537V9.6H1.592L1.7,9.26H1.758V9.148H1.813V9.036H1.868V8.925H1.924V8.813H1.979V8.7H2.034V8.589H2.089V8.477H2.145V8.365H2.2V8.253L2.311,8.2l0.055-.224,0.111-.056,0.055-.224H2.587l0.055-.168L2.753,7.47V7.358l0.166-.112V7.134l0.111-.056V6.967L3.14,6.911,3.2,6.743l0.166-.112V6.519l0.166-.112V6.351L3.638,6.3V6.183l0.5-.448V5.624L4.3,5.512l0.387-.447H4.8l0.055-.112H4.909l0.332-.392H5.352l0.221-.28H5.683l0.166-.224H5.96L6.07,3.889H6.181l0.055-.112H6.347L6.458,3.61H6.568L6.624,3.5H6.734L6.845,3.33H6.955l0.055-.112,0.221-.056V3.106L7.4,3.05l0.055-.112,0.221-.056L7.729,2.77l0.221-.056L8.006,2.6H8.116V2.547H8.227V2.491H8.338V2.435h0.11V2.379H8.559V2.323H8.669V2.267H8.78V2.211H8.89V2.155H9V2.1l0.332-.112V1.931H9.5V1.875H9.609V1.819H9.775V1.763H9.886V1.707h0.166V1.651h0.111V1.6l0.332-.056V1.484H10.66V1.428h0.166V1.372h0.166V1.316h0.166V1.26h0.221c0.35-.12.8-0.225,1.161-0.336h0.332V0.868h0.442V0.812h0.442V0.757A2.1,2.1,0,0,0,14.42.7a16.274,16.274,0,0,1,5.7.727h0.221V1.484H20.5V1.54h0.166V1.6h0.166V1.651l0.332,0.056V1.763h0.111V1.819l0.332,0.056V1.931l0.221,0.056V2.043H21.94V2.1h0.166V2.155l0.332,0.112V2.323h0.111V2.379h0.111V2.435h0.11V2.491H22.88V2.547H22.99V2.6H23.1V2.658h0.111L23.267,2.77l0.221,0.056,0.055,0.112,0.221,0.056V3.05L23.93,3.106C24,3.255,23.949,3.218,24.1,3.218V3.274L24.262,3.33l0.055,0.112h0.111l0.11,0.168h0.111L24.76,3.777H24.87l0.111,0.168h0.111l0.221,0.28A7.3,7.3,0,0,1,26.971,5.9l0.387,0.336V6.351l0.166,0.112L27.58,6.631,27.69,6.687V6.8l0.166,0.112V7.022l0.111,0.056V7.19l0.111,0.056,0.055,0.168h0.055l0.055,0.224,0.111,0.056,0.055,0.224L28.52,7.974V8.085h0.055V8.2H28.63V8.309h0.055V8.421L28.8,8.477V8.589h0.055V8.7l0.11,0.056V8.868h0.055V8.981h0.055V9.093h0.055V9.2h0.055V9.316h0.055l0.111,0.336H29.4V9.82H29.46V9.932h0.055l0.608,1.958v0.28h0.055v0.28h0.055v0.392h0.055v0.392h0.055v0.615H30.4A7.2,7.2,0,0,1,30.344,15.582ZM17.7,9.414h1.924v-3l-2.649-.011a3.384,3.384,0,0,0-3.61,3.664v2h-1.7v3.087h1.7V23.89h3.578V15.155h2.414l0.312-3.087H16.939V10.254A0.733,0.733,0,0,1,17.7,9.414Z"/>
</svg>
