<svg xmlns="http://www.w3.org/2000/svg" width="17" height="19" viewBox="0 0 17 19">
  <metadata><?xpacket begin="﻿" id="W5M0MpCehiHzreSzNTczkc9d"?>
<x:xmpmeta xmlns:x="adobe:ns:meta/" x:xmptk="Adobe XMP Core 5.6-c138 79.159824, 2016/09/14-01:09:01        ">
   <rdf:RDF xmlns:rdf="http://www.w3.org/1999/02/22-rdf-syntax-ns#">
      <rdf:Description rdf:about=""/>
   </rdf:RDF>
</x:xmpmeta>
                                                                                                    
                                                                                                    
                                                                                                    
                                                                                                    
                                                                                                    
                                                                                                    
                                                                                                    
                                                                                                    
                                                                                                    
                                                                                                    
                                                                                                    
                                                                                                    
                                                                                                    
                                                                                                    
                                                                                                    
                                                                                                    
                                                                                                    
                                                                                                    
                                                                                                    
                                                                                                    
                           
<?xpacket end="w"?></metadata>
<defs>
    <style>
      .cls-1 {
        fill: #354954;
        fill-rule: evenodd;
      }
    </style>
  </defs>
  <path id="icono_telefono" data-name="icono telefono" class="cls-1" d="M14.43,17.287a2.1,2.1,0,0,1-1.266.523,1.841,1.841,0,0,1-.992-0.208,20.877,20.877,0,0,1-8.985-6.916A19.593,19.593,0,0,1,.4,5.612,2.074,2.074,0,0,1,.311,3.621a5.865,5.865,0,0,1,1.1-1.073A3.805,3.805,0,0,1,2.653,1.8a1.429,1.429,0,0,1,.658.06,1.767,1.767,0,0,1,.316.158,12.761,12.761,0,0,1,2.347,3,1.675,1.675,0,0,1,.266,1.162,1.9,1.9,0,0,1-.847.96,4.675,4.675,0,0,0-.521.465A1.227,1.227,0,0,0,4.7,8.2a4.418,4.418,0,0,0,.66,1.849,7.914,7.914,0,0,0,1.321,1.554,7.285,7.285,0,0,0,1.734,1.225A1.924,1.924,0,0,0,10,13.154a1.271,1.271,0,0,0,.208-0.116c0.026-.024.229-0.271,0.45-0.544a1.6,1.6,0,0,1,.816-0.723,1.409,1.409,0,0,1,1.131.1c0.289,0.15.921,0.542,1.329,0.826a19.613,19.613,0,0,1,1.839,1.5,1.2,1.2,0,0,1,.137,1.244A5.83,5.83,0,0,1,14.43,17.287Z"/>
</svg>
