<svg xmlns="http://www.w3.org/2000/svg" width="31" height="30" viewBox="0 0 31 30">
  <metadata><?xpacket begin="﻿" id="W5M0MpCehiHzreSzNTczkc9d"?>
<x:xmpmeta xmlns:x="adobe:ns:meta/" x:xmptk="Adobe XMP Core 5.6-c138 79.159824, 2016/09/14-01:09:01        ">
   <rdf:RDF xmlns:rdf="http://www.w3.org/1999/02/22-rdf-syntax-ns#">
      <rdf:Description rdf:about=""/>
   </rdf:RDF>
</x:xmpmeta>
                                                                                                    
                                                                                                    
                                                                                                    
                                                                                                    
                                                                                                    
                                                                                                    
                                                                                                    
                                                                                                    
                                                                                                    
                                                                                                    
                                                                                                    
                                                                                                    
                                                                                                    
                                                                                                    
                                                                                                    
                                                                                                    
                                                                                                    
                                                                                                    
                                                                                                    
                                                                                                    
                           
<?xpacket end="w"?></metadata>
<defs>
    <style>
      .cls-1 {
        fill: #00b7ca;
        fill-rule: evenodd;
      }
    </style>
  </defs>
  <path id="icono_twitter_cesticom" data-name="icono twitter cesticom" class="cls-1" d="M30.307,15.332V16H30.251v0.448H30.2v0.392C30.061,17.3,30,17.9,29.864,18.355l-0.055.559H29.753v0.224H29.7v0.224H29.643v0.224H29.587V19.81H29.532v0.28c-0.232.687-.423,1.5-0.664,2.183V22.5H28.813v0.168H28.758v0.168H28.7V23H28.647v0.168H28.592v0.224H28.537l-0.055.336H28.426V23.9H28.37v0.168H28.315v0.168H28.26l-0.111.559H28.094l-0.056.336H27.983l-0.055.336H27.873l-0.111.5H27.707v0.224H27.651v0.168H27.6v0.168H27.541v0.168H27.485v0.168H27.43l-0.055.336H27.32v0.224H27.264V27.59H27.209v0.168H27.153v0.168H27.1v0.168H27.043l-0.055.336H26.932v0.224H26.877l-0.055.336H26.766a4.63,4.63,0,0,1-1.328.056,0.914,0.914,0,0,1-.5.056H23.558v0.056H21.732v0.056H20.018a9.37,9.37,0,0,1-2.1.056,4.93,4.93,0,0,1-1.106-.056c-0.335-.1-0.861.03-1.162-0.056L14.154,29.1V29.045H13.6V28.989H13.1V28.933l-0.664-.056V28.822H12.107V28.766H11.83V28.71H11.609V28.654H11.388V28.6H11.167V28.542l-0.443-.056V28.43H10.558V28.374H10.392V28.318H10.226V28.262H10.06V28.206H9.894V28.15l-0.332-.056V28.038H9.452V27.982H9.286V27.926L9.065,27.87V27.814H8.9V27.758l-0.332-.112V27.59H8.456V27.534l-0.5-.168L7.9,27.254H7.792V27.2H7.682V27.142H7.571V27.087H7.46L7.4,26.975l-0.221-.056V26.862l-0.166-.056-0.055-.112H6.852L6.8,26.583H6.686V26.527L6.52,26.471l-0.055-.112H6.354l-0.111-.168H6.133l-0.111-.168H5.911L5.745,25.8H5.635l-0.221-.28H5.3L4.75,24.9H4.639l-0.277-.336-0.111-.056V24.4L3.7,23.9V23.784L3.367,23.5l-0.055-.168-0.166-.112V23.112L2.98,23V22.889l-0.111-.056V22.721L2.7,22.609V22.5l-0.111-.056-0.055-.168H2.482l-0.055-.224H2.371l-0.055-.168-0.111-.056L2.15,21.6l-0.111-.056V21.433H1.984V21.321H1.929V21.21H1.873V21.1H1.818V20.985H1.763V20.874H1.707V20.762H1.652V20.65H1.6V20.538H1.541L1.431,20.2H1.375V20.034H1.32V19.922H1.265V19.754H1.209V19.642H1.154L1.1,19.362H1.043V19.139H0.988V18.971H0.933V18.8H0.877V18.635H0.822V18.467H0.767l-0.055-.5a9.923,9.923,0,0,1-.332-2.91q0.028-.84.055-1.679H0.49V12.982H0.546V12.646H0.6V12.31H0.656V12.086H0.711v-0.28H0.767v-0.28H0.822V11.3H0.877l0.111-.559H1.043V10.575H1.1V10.407H1.154l0.055-.336H1.265V9.959H1.32l0.055-.336H1.431V9.511H1.486V9.344H1.541l0.111-.336H1.707V8.9H1.763V8.784H1.818V8.672H1.873V8.56H1.929V8.448H1.984V8.336H2.039V8.224H2.095V8.112H2.15V8L2.26,7.944,2.316,7.72l0.111-.056L2.482,7.44H2.537l0.055-.168L2.7,7.217V7.1l0.166-.112V6.881L2.98,6.825V6.713L3.09,6.657l0.055-.168,0.166-.112V6.265l0.166-.112V6.1l0.111-.056V5.929l0.5-.448V5.369l0.166-.112L4.639,4.81H4.75L4.805,4.7H4.86l0.332-.392H5.3l0.221-.28H5.635L5.8,3.8H5.911l0.111-.168H6.133l0.055-.112H6.3l0.111-.168H6.52l0.055-.112H6.686L6.8,3.075H6.907l0.055-.112,0.221-.056V2.851L7.35,2.795,7.4,2.683l0.221-.056,0.055-.112L7.9,2.459l0.055-.112H8.069V2.291H8.179V2.235H8.29V2.179H8.4V2.123H8.511V2.067H8.622V2.011H8.733V1.955H8.843V1.9H8.954V1.843l0.332-.112V1.675H9.452V1.62H9.562V1.563H9.728V1.507H9.839V1.452H10V1.4h0.111V1.339l0.332-.056V1.227h0.166V1.172h0.166V1.116h0.166V1.059h0.166V1h0.221c0.35-.12.8-0.225,1.162-0.336h0.332V0.612h0.443V0.556h0.442V0.5A2.092,2.092,0,0,0,14.375.444a16.279,16.279,0,0,1,5.7.727h0.221V1.227H20.46V1.284h0.166V1.339h0.166V1.4l0.332,0.056V1.507h0.111V1.563L21.566,1.62V1.675l0.221,0.056V1.787H21.9V1.843h0.166V1.9L22.4,2.011V2.067h0.111V2.123h0.111V2.179h0.111V2.235h0.111V2.291h0.111V2.347H23.06V2.4h0.111l0.055,0.112,0.221,0.056L23.5,2.683l0.221,0.056V2.795L23.89,2.851c0.074,0.149.019,0.112,0.166,0.112V3.019l0.166,0.056,0.055,0.112h0.111L24.5,3.355h0.11l0.111,0.168H24.83L24.941,3.69h0.111l0.221,0.28a7.305,7.305,0,0,1,1.66,1.679L27.32,5.985V6.1l0.166,0.112,0.055,0.168,0.111,0.056V6.545l0.166,0.112V6.769l0.111,0.056V6.937l0.111,0.056,0.056,0.168h0.055L28.2,7.385,28.315,7.44,28.37,7.664,28.481,7.72V7.832h0.055V7.944h0.055V8.056h0.055V8.168l0.111,0.056V8.336h0.055V8.448L28.924,8.5V8.616h0.055V8.728h0.055V8.84H29.09V8.952h0.055V9.064H29.2L29.311,9.4h0.055V9.567h0.055V9.679h0.055l0.608,1.959v0.28h0.055V12.2H30.2V12.59h0.055v0.392h0.055V13.6h0.055A7.206,7.206,0,0,1,30.307,15.332Zm-7.341-4.926A3.577,3.577,0,0,0,24.56,8.44a7.346,7.346,0,0,1-2.3.863A3.654,3.654,0,0,0,19.611,8.18a3.591,3.591,0,0,0-3.626,3.555,3.5,3.5,0,0,0,.094.81A10.36,10.36,0,0,1,8.6,8.831a3.484,3.484,0,0,0-.491,1.787,3.537,3.537,0,0,0,1.613,2.959,3.667,3.667,0,0,1-1.642-.445c0,0.015,0,.03,0,0.045a3.576,3.576,0,0,0,2.909,3.486,3.711,3.711,0,0,1-.955.125,3.641,3.641,0,0,1-.682-0.064,3.621,3.621,0,0,0,3.387,2.469,7.367,7.367,0,0,1-4.5,1.522,7.53,7.53,0,0,1-.865-0.049,10.412,10.412,0,0,0,5.558,1.6A10.141,10.141,0,0,0,23.249,12.148c0-.154,0-0.308-0.01-0.46a7.281,7.281,0,0,0,1.809-1.841A7.336,7.336,0,0,1,22.965,10.407Z"/>
</svg>
