<svg xmlns="http://www.w3.org/2000/svg" width="474" height="134" viewBox="0 0 474 134">
  <metadata><?xpacket begin="﻿" id="W5M0MpCehiHzreSzNTczkc9d"?>
<x:xmpmeta xmlns:x="adobe:ns:meta/" x:xmptk="Adobe XMP Core 5.6-c138 79.159824, 2016/09/14-01:09:01        ">
   <rdf:RDF xmlns:rdf="http://www.w3.org/1999/02/22-rdf-syntax-ns#">
      <rdf:Description rdf:about=""/>
   </rdf:RDF>
</x:xmpmeta>
                                                                                                    
                                                                                                    
                                                                                                    
                                                                                                    
                                                                                                    
                                                                                                    
                                                                                                    
                                                                                                    
                                                                                                    
                                                                                                    
                                                                                                    
                                                                                                    
                                                                                                    
                                                                                                    
                                                                                                    
                                                                                                    
                                                                                                    
                                                                                                    
                                                                                                    
                                                                                                    
                           
<?xpacket end="w"?></metadata>
<defs>
    <style>
      .cls-1 {
        fill: #00b7ca;
        mix-blend-mode: difference;
      }

      .cls-1, .cls-2, .cls-3 {
        fill-rule: evenodd;
      }

      .cls-2 {
        fill: #fff;
      }

      .cls-3 {
        fill: #c43c50;
      }
    </style>
  </defs>
  <path id="formas" class="cls-1" d="M111.752,30.116a27.417,27.417,0,0,0-5.04-4.777l-0.833-1.057h-0.416q-0.208-.317-0.416-0.634H104.63q-0.208-.316-0.416-0.634H103.8l-0.416-.634h-0.417l-0.208-.423-0.625-.211V21.536c-0.555,0-.347.14-0.624-0.423l-0.625-.211V20.69l-0.833-.211-0.208-.423-0.833-.211L98.8,19.422H98.383V19.211H97.967V19H97.551V18.788H97.134V18.577H96.718V18.366H96.3V18.154H95.885V17.943l-1.249-.423V17.309H94.011V17.1H93.594V16.886l-0.833-.211V16.464l-1.249-.212V16.041H91.1V15.829l-1.249-.211V15.407H89.222V15.2H88.6V14.984H87.972V14.773H87.139c-5.857-2.129-13.392-2.917-21.447-2.747-0.535.481-1.676-.026-2.5,0.211v0.211H61.527V12.66H59.862v0.211H58.612c-1.37.419-3.055,0.813-4.373,1.268H53.407V14.35H52.782v0.212H52.157v0.211H51.533v0.211H50.908V15.2l-1.249.211v0.211H49.242v0.211H48.617v0.212H48.2v0.211H47.576v0.212H47.16v0.211H46.535v0.211l-1.249.423V17.52H44.869v0.212H44.453v0.211H44.037v0.211H43.62v0.212H43.2v0.211H42.787v0.211H42.371V19H41.954v0.211H41.538l-0.208.423-0.833.211-0.208.423-0.833.211-0.208.422-0.625.211v0.211l-0.833.212-0.208.422H37.165l-0.416.634H36.332l-0.208.423H35.708l-0.417.634H34.874l-0.208.423H34.25l-0.416.634H33.417l-0.625.845H32.376l-0.833,1.057H31.127l-1.25,1.479H29.669l-0.208.423H29.044L27.587,30.2l-0.625.423v0.422l-1.874,1.691v0.423l-0.417.211v0.211L24.047,34v0.423l-0.625.423-0.208.634-0.416.211v0.422l-0.416.211v0.423l-0.625.423V37.6l-0.416.211-0.208.634H20.923l-0.208.845L20.3,39.5l-0.208.845-0.416.212v0.422H19.466V41.4H19.258v0.423H19.049v0.422H18.841v0.423H18.633v0.423H18.425v0.423H18.217v0.423H18.008v0.423H17.8l-0.416,1.268H17.175v0.634H16.967v0.423H16.759q-0.1.634-.208,1.268H16.342v0.423H16.134q-0.1.634-.208,1.268H15.718v0.634H15.51V50.91H15.3l-0.416,2.113H14.677v0.846H14.469v1.056H14.26v1.057H14.052v0.845H13.844V58.1H13.635v1.268H13.427v1.48H13.219q-0.1,3.169-.208,6.34A37.576,37.576,0,0,0,14.26,78.172q0.1,0.951.208,1.9h0.208v0.634h0.208v0.634h0.208v0.634H15.3V82.61H15.51v0.845h0.208l0.208,1.057h0.208v0.423h0.208v0.634h0.208v0.423h0.208v0.634h0.208l0.416,1.268h0.208v0.423H17.8v0.423h0.208v0.423h0.208v0.423h0.208v0.423h0.208v0.423h0.208v0.423h0.208v0.423h0.208V91.7l0.416,0.211,0.208,0.845L20.3,92.965,20.507,93.6h0.208l0.208,0.845h0.208l0.208,0.634,0.416,0.211v0.423l0.625,0.423v0.422L22.8,96.77v0.422l0.625,0.423v0.423l0.625,0.422,0.208,0.634,1.249,1.057v0.422l2.082,1.9V102.9L28,103.109l1.041,1.268h0.416l2.082,2.325h0.416l0.833,1.057h0.416l0.625,0.845H34.25l0.416,0.634h0.416l0.416,0.634h0.416l0.208,0.422,0.625,0.212v0.211h0.416l0.208,0.423H37.79L38,111.563l0.625,0.211v0.211l0.833,0.212,0.208,0.422H40.08v0.212H40.5v0.211h0.416v0.211H41.33l0.208,0.423,1.874,0.634v0.211h0.416v0.212l1.249,0.422v0.212H45.7v0.211l0.833,0.211V116H47.16v0.211h0.417v0.211l1.249,0.212v0.211H49.45v0.211h0.625v0.212H50.7v0.211h0.625v0.211h0.625V117.9l1.666,0.211v0.211h0.833v0.212h0.833v0.211h0.833v0.211h1.041v0.211H58.4v0.212l2.5,0.211v0.212h1.874v0.211h2.082v0.211l5.622,0.211c1.134,0.325,3.112-.149,4.373.212a18.609,18.609,0,0,0,4.165.211c2.477,0,5.814.375,7.912-.211h6.455v-0.212h6.871v-0.211h5.206a3.445,3.445,0,0,0,1.874-.211c1.02,0.018,4.517.227,5-.211h0.209q0.1-.635.208-1.268h0.208v-0.846h0.208q0.1-.633.209-1.268h0.208v-0.634h0.208v-0.634H114v-0.634h0.208v-0.634h0.209v-0.845h0.208q0.1-.635.208-1.268h0.208V111.14h0.209v-0.634h0.208v-0.634h0.208v-0.634h0.208v-0.845h0.209q0.207-.951.416-1.9h0.208q0.105-.635.208-1.268h0.209q0.1-.635.208-1.268h0.208q0.209-1.057.416-2.114h0.209v-0.634h0.208v-0.634h0.208V99.939h0.209q0.1-.633.208-1.268h0.208V97.826h0.208V97.192h0.208V96.558h0.209V95.924h0.208V95.29h0.208V94.445c0.906-2.561,1.624-5.647,2.5-8.242V85.146h0.208V84.3h0.208V83.455h0.208V82.61h0.209V81.765h0.208q0.1-1.057.208-2.113c0.524-1.707.742-3.992,1.249-5.706V72.466h0.209V70.776h0.208V68.239a27.27,27.27,0,0,0,.208-6.551h-0.208V59.364h-0.208V57.884h-0.209V56.405h-0.208V55.349h-0.208V54.292l-2.29-7.4h-0.209V46.473h-0.208V45.838h-0.208c-0.019-.057-0.038-0.114-0.056-0.171,3.134-2.778,6.2-5.4,9.2-7.908l0.219,0.111v0.512h0.253v0.512h0.252v0.512h0.253v0.512h0.252v0.512h0.253q0.252,0.768.505,1.536H133.3v0.769h0.253v0.512H133.8l2.778,8.962v1.28h0.252v1.28h0.253v1.792h0.252v1.792h0.253V61.17h0.252c0.358,1.3.018,6.97-.252,7.937V72.18h-0.253v2.049h-0.252v1.792c-0.615,2.076-.88,4.846-1.515,6.913q-0.126,1.281-.253,2.561h-0.252v1.024h-0.253v1.024h-0.252v1.025h-0.253v1.024h-0.252v1.281c-1.061,3.144-1.932,6.883-3.03,9.985v1.025h-0.253v0.768h-0.252v0.768h-0.253v0.768h-0.252v0.768h-0.253v1.024h-0.253l-0.252,1.537H129v0.768h-0.252v0.768H128.5v0.768h-0.253q-0.252,1.279-.505,2.56h-0.253l-0.252,1.537h-0.253l-0.252,1.536h-0.253q-0.252,1.152-.5,2.305h-0.252v1.024h-0.253v0.768h-0.252v0.768h-0.253v0.768h-0.252v0.768h-0.253l-0.252,1.536h-0.253v1.025H123.7v0.768h-0.253v0.768H123.2v0.768h-0.253v0.768h-0.252q-0.126.768-.253,1.536h-0.252v1.025h-0.253q-0.126.766-.252,1.536h-0.253c-0.583.532-4.823,0.278-6.06,0.256-0.429.382-1.467,0.254-2.273,0.256h-6.312v0.256H98.45v0.256H90.622c-2.545.71-6.592,0.256-9.6,0.256a22.551,22.551,0,0,1-5.05-.256c-1.529-.438-3.927.138-5.3-0.256l-6.818-.256v-0.256H61.331v-0.256H59.059v-0.256l-3.03-.257v-0.255H54.514v-0.256H53.251V130.3h-1.01v-0.255h-1.01v-0.256h-1.01v-0.257l-2.02-.255v-0.257H47.443v-0.256H46.686V128.51H45.928v-0.256H45.171V128H44.413v-0.256l-1.515-.256V127.23H42.393v-0.256H41.636v-0.256l-1.01-.256v-0.256H39.868V125.95l-1.515-.512v-0.256h-0.5v-0.256l-2.273-.769q-0.127-.255-0.252-0.512H34.818v-0.256h-0.5v-0.255H33.808v-0.257H33.3l-0.252-.512-1.01-.256v-0.256l-0.757-.256-0.253-.512h-0.5l-0.253-.512H29.768v-0.256l-0.758-.256-0.253-.512h-0.5l-0.5-.768H27.243l-0.505-.769h-0.5l-0.758-1.024H24.97q-0.505-.639-1.01-1.28H23.455l-2.525-2.816h-0.5l-1.263-1.537-0.5-.256v-0.512l-2.525-2.3v-0.512l-1.515-1.28-0.253-.769-0.758-.512V104.7l-0.758-.512v-0.512l-0.505-.256v-0.512l-0.758-.512v-0.512l-0.5-.256-0.253-.769H10.577l-0.252-1.024H10.072L9.82,99.065l-0.5-.256L9.062,97.785l-0.5-.256V97.017H8.3V96.5H8.052V95.992H7.8V95.48H7.547V94.968H7.295V94.456H7.042V93.944H6.79V93.432H6.537V92.92H6.285L5.779,91.383H5.527V90.616H5.275V90.1H5.022V89.335H4.77V88.823H4.517l-0.253-1.28H4.012V86.519H3.759V85.751H3.507V84.983H3.254V84.214H3V83.446H2.75q-0.127-1.152-.253-2.3A45.485,45.485,0,0,1,.982,67.828q0.126-3.841.253-7.681H1.487V58.354H1.739V56.817H1.992V55.281H2.244V54.257H2.5v-1.28H2.75V51.7H3V50.672H3.254l0.505-2.56H4.012V47.344H4.264V46.575H4.517q0.126-.768.253-1.536H5.022V44.527H5.275q0.126-.768.252-1.536H5.779V42.479H6.032V41.711H6.285L6.79,40.174H7.042V39.662H7.295V39.15H7.547V38.638H7.8V38.126H8.052V37.614H8.3V37.1H8.557V36.59H8.81V36.078H9.062V35.566l0.505-.256L9.82,34.286l0.505-.256,0.252-1.024H10.83l0.253-.768,0.5-.256V31.469l0.758-.512V30.445l0.505-.256V29.677l0.505-.256,0.253-.768,0.758-.512V27.628l0.757-.512V26.86l0.505-.256V26.092L17.9,24.043V23.532l0.758-.512,1.768-2.048h0.5l0.253-.512h0.252l1.515-1.792h0.505l1.01-1.28h0.5l0.758-1.024h0.505l0.5-.769h0.505l0.252-.512H28l0.5-.768H29.01l0.252-.512h0.505l0.505-.768h0.5l0.253-.512,1.01-.256V12.01l0.758-.256,0.253-.512,1.01-.256,0.253-.512,1.01-.256L35.576,9.7h0.505V9.449h0.505V9.193h0.505V8.937h0.5V8.681h0.5V8.425h0.505V8.169h0.5V7.913h0.505V7.656h0.505V7.4l1.515-.512V6.632h0.758V6.377H42.9V6.12h0.758V5.865h0.5V5.608h0.758V5.352h0.505V5.1l1.515-.256V4.584H47.7V4.328h0.758V4.072h0.757V3.816h0.758V3.56h1.01c1.6-.552,3.641-1.028,5.3-1.536H57.8V1.768h2.02V1.511h2.02V1.256c1-.288,2.381.327,3.03-0.256,9.768-.206,18.905.749,26.008,3.328h1.01V4.584h0.758V4.84H93.4V5.1h0.757V5.352l1.515,0.256V5.865h0.505V6.12l1.515,0.257V6.632L98.7,6.889V7.145h0.5V7.4h0.757V7.656l1.515,0.512V8.425h0.5V8.681h0.5V8.937H103V9.193h0.5V9.449h0.5V9.7h0.505V9.961h0.5c0.084,0.171.169,0.341,0.253,0.512l1.01,0.256,0.252,0.512,1.01,0.256v0.256L108.3,12.01c0.336,0.682.084,0.512,0.757,0.512v0.256l0.758,0.256,0.252,0.512h0.5q0.254,0.383.505,0.768h0.5l0.506,0.768h0.5l0.5,0.768h0.5l1.011,1.281a33.258,33.258,0,0,1,6.024,5.674Q116.213,26.3,111.752,30.116Zm-45.116-4.1c6.059-.128,11.727.465,16.133,2.067h0.626v0.159h0.47V28.4h0.47v0.159H84.8v0.159l0.94,0.159V29.04h0.313V29.2L87,29.358v0.159l0.627,0.159v0.159h0.313v0.159h0.47v0.159l0.94,0.318V30.63H89.66v0.159h0.313v0.159h0.313v0.159H90.6v0.159h0.313v0.159h0.313v0.159H91.54L91.7,31.9l0.627,0.159,0.157,0.318,0.627,0.159V32.7l0.47,0.159c0.209,0.424.052,0.318,0.47,0.318v0.159l0.47,0.159,0.157,0.318h0.313L95.3,34.286h0.313l0.313,0.477h0.313l0.313,0.477h0.313l0.627,0.8a20.657,20.657,0,0,1,3.765,3.56q-2.583,2.452-5.139,5.021a17.046,17.046,0,0,0-3.525-3.483l-0.517-.656H91.817l-0.258-.394H91.3l-0.258-.394H90.784L90.526,39.3H90.268l-0.129-.263L89.751,38.9V38.77c-0.344,0-.215.087-0.388-0.262l-0.387-.131V38.245l-0.517-.131-0.129-.263-0.517-.131-0.129-.263H87.426V37.327H87.168V37.2H86.909V37.064H86.651V36.933H86.393V36.8H86.134V36.671H85.876V36.54L85.1,36.277V36.146H84.714V36.015H84.455V35.883l-0.517-.131V35.621l-0.775-.132V35.359H82.905V35.227L82.13,35.1V34.965H81.743V34.834H81.355V34.7H80.968V34.571H80.451a37.866,37.866,0,0,0-13.3-1.706c-0.332.3-1.039-.016-1.55,0.131v0.131H64.564v0.131H63.531V33.39H62.756c-0.85.26-1.9,0.5-2.712,0.787H59.527v0.131H59.14V34.44H58.752v0.131H58.365V34.7H57.977v0.131l-0.775.131V35.1H56.944v0.131H56.556v0.131H56.3V35.49H55.911v0.132H55.652v0.131H55.265v0.131l-0.775.262v0.131H54.231v0.131H53.973V36.54H53.715v0.131H53.456V36.8H53.2v0.131H52.94v0.131H52.681V37.2H52.423v0.131H52.165l-0.129.263-0.517.131-0.129.262-0.517.131-0.129.262-0.388.131v0.131l-0.517.131-0.129.262H49.452l-0.258.394H48.936l-0.129.263H48.548l-0.258.394H48.032l-0.129.263H47.644l-0.258.394H47.128l-0.387.525H46.482l-0.517.656H45.707l-0.775.918H44.8l-0.129.263H44.415l-0.9,1.05-0.388.263v0.262l-1.163,1.05v0.263l-0.258.131V46.25l-0.388.262v0.263l-0.387.263-0.129.393-0.258.131v0.262l-0.258.131v0.263l-0.388.262v0.262l-0.258.131-0.129.394H39.378l-0.129.525-0.258.131-0.129.525L38.6,50.58v0.262H38.474V51.1H38.345v0.262H38.215V51.63H38.086v0.262H37.957v0.263H37.828v0.262H37.7v0.262H37.57v0.262H37.44l-0.258.787H37.053v0.394H36.924v0.262H36.795l-0.129.787H36.536v0.263H36.407l-0.129.787H36.149v0.394H36.02V57.01H35.89l-0.258,1.312H35.5v0.525H35.374V59.5H35.245v0.656H35.115v0.525H34.986v0.787H34.857v0.788H34.728v0.919H34.6q-0.065,1.968-.129,3.937a23.351,23.351,0,0,0,.775,6.823q0.065,0.59.129,1.181H35.5v0.394h0.129v0.394h0.129V76.3H35.89v0.394H36.02v0.525h0.129l0.129,0.656h0.129v0.262h0.129V78.53h0.129v0.262h0.129v0.393h0.129l0.258,0.787h0.129v0.263H37.44V80.5H37.57V80.76H37.7v0.262h0.129v0.262h0.129v0.262h0.129V81.81h0.129v0.263h0.129v0.262L38.6,82.466l0.129,0.525,0.258,0.131,0.129,0.394h0.129l0.129,0.525h0.129l0.129,0.394,0.258,0.131v0.263l0.388,0.263v0.262l0.258,0.131v0.262l0.387,0.263v0.262l0.387,0.262,0.129,0.394,0.775,0.656v0.263l1.292,1.181V89.29l0.258,0.131,0.646,0.787h0.258l1.292,1.443h0.258l0.517,0.656H47l0.388,0.525h0.258L47.9,93.226h0.258l0.258,0.394h0.258l0.129,0.262,0.387,0.131v0.131h0.258l0.129,0.262H49.84l0.129,0.263L50.357,94.8v0.131l0.517,0.131L51,95.326h0.258v0.131h0.258v0.131h0.258V95.72h0.258l0.129,0.262,1.163,0.394v0.131h0.258v0.131L54.361,96.9v0.131h0.388v0.131l0.517,0.131v0.131h0.387v0.131h0.258v0.131l0.775,0.131V97.95h0.388v0.131h0.388v0.131h0.387v0.131h0.387v0.131h0.387v0.131l1.033,0.131v0.131h0.517V99H60.69v0.131h0.517v0.131h0.646v0.131h0.775v0.131l1.55,0.131v0.131h1.162v0.131h1.292v0.132l3.487,0.131c0.7,0.2,1.93-.093,2.712.131a11.483,11.483,0,0,0,2.583.131,21.755,21.755,0,0,0,4.908-.131h4v-0.131h4.262V100.05h3.229a2.139,2.139,0,0,0,1.162-.132c0.632,0.011,2.8.142,3.1-.131h0.129L96.338,99h0.129V98.475H96.6l0.129-.787h0.129V97.294h0.129V96.9h0.129V96.507h0.129V96.113h0.129V95.588H97.5L97.63,94.8h0.129V94.407h0.129V94.014h0.129V93.62h0.129V93.226h0.129V92.7H98.4l0.258-1.181h0.129l0.129-.787h0.129l0.129-.787h0.129l0.258-1.312H99.7V88.24h0.129V87.846h0.129V87.453h0.129l0.129-.787h0.129V86.14h0.129V85.747H100.6V85.353h0.13V84.959h0.129V84.566h0.129V84.041c0.562-1.59,1.007-3.506,1.55-5.117V78.267h0.129V77.743H102.8V77.217h0.129V76.693h0.13V76.168h0.129l0.129-1.312c0.325-1.06.46-2.479,0.775-3.543V70.394h0.129v-1.05h0.129V67.77a16.966,16.966,0,0,0,.129-4.068h-0.129V62.487c2-2.182,4.152-4.417,6.228-6.429q0.273,0.879.544,1.757v0.795h0.157v0.795h0.157v1.113h0.156v1.113h0.157V63.38H111.9a20.6,20.6,0,0,1-.157,4.929v1.908h-0.157v1.272h-0.156V72.6c-0.382,1.289-.546,3.009-0.94,4.292q-0.078.8-.157,1.59h-0.156V79.12h-0.157v0.636h-0.157v0.636h-0.156v0.636h-0.157v0.8c-0.658,1.952-1.2,4.274-1.879,6.2v0.636h-0.157v0.477h-0.157v0.477H107.2v0.477h-0.157v0.477h-0.157V91.2h-0.156c-0.052.318-.105,0.636-0.157,0.954h-0.157v0.477h-0.156V93.11h-0.157v0.477H105.95q-0.158.795-.314,1.59H105.48c-0.052.318-.105,0.636-0.157,0.954h-0.157l-0.156.954h-0.157q-0.156.715-.313,1.431h-0.157v0.636h-0.156v0.477H104.07v0.477h-0.157v0.477h-0.156v0.477H103.6l-0.156.954h-0.157v0.636H103.13v0.477h-0.156V103.6h-0.157v0.477H102.66v0.477H102.5c-0.052.318-.105,0.636-0.157,0.954H102.19v0.636h-0.156c-0.052.317-.105,0.636-0.157,0.954h-0.156c-0.362.33-2.993,0.172-3.76,0.159a2.593,2.593,0,0,1-1.41.159H92.636v0.159H87.467v0.159H82.612c-1.579.44-4.089,0.158-5.952,0.159a13.992,13.992,0,0,1-3.133-.159c-0.949-.272-2.436.085-3.289-0.159q-2.114-.081-4.229-0.159V107.26H64.443V107.1h-1.41v-0.159l-1.88-.159v-0.159h-0.94v-0.159H59.431v-0.159H58.8v-0.159H58.178v-0.159H57.551v-0.159L56.3,105.67v-0.159h-0.47v-0.159h-0.47v-0.159h-0.47v-0.159h-0.47v-0.159h-0.47v-0.159l-0.94-.159V104.4H52.7v-0.159h-0.47V104.08l-0.626-.159v-0.159h-0.47V103.6l-0.94-.318v-0.159H49.876v-0.159l-1.41-.477-0.157-.318H48v-0.159H47.683v-0.159H47.37V101.7H47.057l-0.157-.318-0.626-.159v-0.159L45.8,100.9l-0.157-.318H45.334l-0.157-.318H44.864v-0.159l-0.47-.159-0.157-.318H43.924l-0.313-.477H43.3l-0.313-.477H42.671l-0.47-.636H41.888l-0.626-.8H40.948L39.382,95.5H39.069l-0.783-.954-0.313-.159V94.064l-1.566-1.431V92.315l-0.94-.795-0.157-.477-0.47-.318V90.408l-0.47-.318V89.772l-0.313-.159V89.295l-0.47-.318V88.659L33.273,88.5l-0.157-.477H32.96L32.8,87.387H32.647L32.49,86.91l-0.313-.159-0.157-.636-0.313-.159V85.638H31.55V85.32H31.394V85H31.237V84.684H31.081V84.366H30.924V84.048H30.767V83.73H30.611V83.412H30.454V83.094H30.3l-0.313-.954H29.828V81.663H29.671V81.345H29.514V80.868H29.358V80.55H29.2l-0.157-.795H28.888V79.12H28.731V78.643H28.575V78.166H28.418V77.689H28.261V77.212H28.1q-0.079-.715-0.157-1.431a28.265,28.265,0,0,1-.94-8.267q0.078-2.385.157-4.77h0.157V61.631h0.157V60.677h0.157V59.724h0.157V59.088h0.157V58.293H28.1V57.5h0.157V56.862h0.157l0.313-1.59h0.157V54.8h0.157V54.318H29.2q0.078-.477.157-0.954h0.157V53.046h0.157q0.078-.477.157-0.954h0.157V51.774h0.157V51.3H30.3l0.313-.954h0.157V50.026h0.157V49.708h0.157V49.39h0.157V49.072h0.157V48.754H31.55V48.436h0.157V48.118h0.157V47.8H32.02V47.482l0.313-.159,0.157-.636,0.313-.159,0.157-.636h0.157l0.157-.477,0.313-.159V44.938l0.47-.318V44.3l0.313-.159V43.825l0.313-.159,0.157-.477,0.47-.318V42.553l0.47-.318V42.076l0.313-.159V41.6l1.41-1.272V40.01l0.47-.318,1.1-1.272h0.313l0.157-.318H39.7l0.94-1.113h0.313l0.627-.795h0.313l0.47-.636h0.313l0.313-.477H43.3l0.157-.318h0.313l0.313-.477h0.313l0.157-.318h0.313l0.313-.477H45.49l0.157-.318,0.627-.159V32.855l0.47-.159,0.157-.318,0.627-.159,0.157-.318,0.627-.159,0.157-.318H48.78V31.266h0.313V31.107h0.313V30.948H49.72V30.789h0.313V30.63h0.313V30.471h0.313V30.312h0.313V30.153h0.313V29.994l0.94-.318V29.517H52.7V29.358h0.313V29.2h0.47V29.04h0.313V28.881h0.47V28.722h0.313V28.563l0.94-.159V28.245h0.47V28.086h0.47V27.927h0.47V27.768h0.47V27.609h0.627c0.991-.343,2.259-0.638,3.289-0.954h0.94V26.5H63.5V26.337h1.253V26.178C65.375,26,66.233,26.381,66.636,26.019Z"/>
  <path id="cesticom_Harabara_Mais_De..." data-name="cesticom Harabara Mais De..." class="cls-2" d="M468.58,100.152c-3.344-.228-5.016-1.824-5.016-5.016V74.463c-0.228-4.18-2.508-6.232-6.992-6.232s-6.765,2.052-6.841,6.232V100H439.547V74.311c-0.228-4.18-2.508-6.232-6.993-6.232s-6.764,2.052-6.84,6.232V100H415.453V76.363c0-11.477,5.777-17.177,17.253-17.177,5.169,0,9.121,1.14,12.009,3.42,2.888-2.2,6.84-3.268,12.009-3.268,11.476,0,17.177,5.7,17.1,17.177v23.637H468.58Zm-77.825.76c-12.16,0-18.24-6.992-18.24-20.825,0-13.985,6.08-20.9,18.24-20.9s18.317,6.916,18.317,20.9C409.072,93.92,402.916,100.912,390.755,100.912Zm0-32.834c-5.32,0-7.98,4.028-7.98,12.009,0.076,7.828,2.736,11.781,7.9,11.781s7.753-4.1,7.829-12.085C398.508,71.955,395.924,68.078,390.755,68.078ZM348.88,92.02a7.889,7.889,0,0,0,6.081-2.888,4.658,4.658,0,0,1,3.42-1.444h7.6c-1.824,8.209-7.752,13.453-17.1,13.225-12.16,0-18.393-6.992-18.7-20.825,0-13.757,6.157-20.673,18.545-20.9,9.729,0,15.5,4.332,17.253,13.073h-11.02a6.585,6.585,0,0,0-6.537-4.18c-5.32,0-7.98,4.028-7.98,12.009S343.256,92.1,348.88,92.02ZM313.16,59.794H318.4c3.269,0,4.865,1.6,4.865,4.864V100H313.16V59.794Zm0-11.477H318.4c3.345,0,4.941,1.672,4.865,4.94v2.964H313.16v-7.9ZM295.225,99.468c-3.8-.38-5.624-2.736-5.548-7.22V48.317h5.244a5.1,5.1,0,0,1,4.865,5.092v6.384h6.08V67l-5.016.016h-1.064V89.283c0,1.672.988,2.584,2.964,2.584h3.116v7.676A55.526,55.526,0,0,1,295.225,99.468ZM280.94,80.087a9.986,9.986,0,0,1,2.812,7.144c0,9.88-7.752,13.529-18.393,13.529-5.624,0-9.881-1.216-12.617-3.572-3.04-2.28-4.56-5.776-4.56-10.412h10.337c0.228,4.408,3.42,5.928,8.36,5.928,4.256,0,6.384-1.216,6.384-3.8,0-2.052-3.5-3.724-10.412-4.94-8.893-1.6-13.453-5.548-13.529-11.857,0-8.664,6.841-12.769,16.037-12.921q7.752,0,12.313,3.42a12.778,12.778,0,0,1,4.788,9.8h-6.384c-2.357-.076-3.877-0.912-4.485-2.508-0.684-1.748-2.736-2.736-6.08-2.736-3.952,0-5.928,1.064-5.928,3.116s2.584,3.648,7.828,4.636C274.251,76.287,278.736,78.035,280.94,80.087Zm-63.84,2.66c0.38,6.156,3.04,9.272,7.98,9.272a9.336,9.336,0,0,0,6.536-2.888,4.43,4.43,0,0,1,3.421-1.444h7.448c-2.2,8.513-7.676,13.225-17.557,13.225-12.161-.38-18.241-7.448-18.241-21.129s6.156-20.521,18.393-20.6c12.769,0,18.773,7.828,18.013,23.561H217.1Zm7.828-15.277c-4.332,0-6.916,2.736-7.676,8.056h15.124C231.768,70.206,229.26,67.47,224.928,67.47ZM183.053,92.02a7.888,7.888,0,0,0,6.08-2.888,4.66,4.66,0,0,1,3.421-1.444h7.6c-1.824,8.209-7.752,13.453-17.1,13.225-12.161,0-18.393-6.992-18.7-20.825,0-13.757,6.156-20.673,18.545-20.9,9.729,0,15.5,4.332,17.253,13.073H189.133a6.585,6.585,0,0,0-6.536-4.18c-5.32,0-7.98,4.028-7.98,12.009S177.429,92.1,183.053,92.02Z"/>
  <path id="check" class="cls-3" d="M53,53L79,91s8.69-15.9,26-34c14.449-15.111,34.1-29.43,49-40l-17,9,21-16L128,28,159,5,130,23,159,2S114.172,25,80,67L69,51Z"/>
</svg>
