<?xml version="1.0" encoding="utf-8"?>
<!-- Generator: Adobe Illustrator 19.0.0, SVG Export Plug-In . SVG Version: 6.00 Build 0)  -->
<svg version="1.1" id="icono" xmlns="http://www.w3.org/2000/svg" xmlns:xlink="http://www.w3.org/1999/xlink" x="0px" y="0px"
	 viewBox="-424 228 110 106" style="enable-background:new -424 228 110 106;" xml:space="preserve">
<style type="text/css">
	.st0{fill:#FF9000;}
	.st1{fill:#FFFFFF;}
</style>
<path id="forma_cesticom" class="st0" d="M-371,228c31.3-0.2,57,20.8,57,53c0,15.7-13,52-13,52s-24.4,1-38,1c-35.8,0-59-23.7-59-53
	C-423.9,251.8-400.2,228.1-371,228z"/>
<g>
	<g>
		<g>
			<path class="st1" d="M-375.1,306.2c-0.5,0-1.1-0.4-1.1-1.1c0-0.6,0.4-1.1,1.1-1.1h12.2c0.5,0,1.1,0.4,1.1,1.1
				c0,0.6-0.4,1.1-1.1,1.1H-375.1z"/>
			<path class="st1" d="M-373.8,310.3c-0.5,0-1.1-0.4-1.1-1.1c0-0.6,0.4-1.1,1.1-1.1h9.5c0.5,0,1.1,0.4,1.1,1.1
				c0,0.6-0.4,1.1-1.1,1.1H-373.8z"/>
			<path class="st1" d="M-370.1,295.9c0,0.5-0.4,1.1-1.1,1.1c-0.5,0-1.1-0.4-1.1-1.1c0-4.4-0.1-7.7-0.8-10.7c-0.6-3-1.7-5.8-3.6-9.3
				c-0.3-0.5-0.1-1.2,0.4-1.4c0.5-0.3,1.2-0.1,1.4,0.4c2.1,3.7,3.1,6.6,3.8,9.8C-370.2,287.9-370.1,291.3-370.1,295.9z"/>
			<path class="st1" d="M-366.1,295.9c0,0.5-0.4,1.1-1.1,1.1c-0.6,0-1.1-0.4-1.1-1.1c0-4.5,0.1-8,0.8-11.1c0.6-3.2,1.8-6.2,3.8-9.8
				c0.3-0.5,0.9-0.6,1.4-0.4c0.5,0.3,0.6,0.9,0.4,1.4c-1.9,3.5-3,6.3-3.6,9.3C-365.8,288.1-366.1,291.5-366.1,295.9z"/>
			<path class="st1" d="M-375.9,276.4c-0.5-0.2-0.9-0.8-0.6-1.3c0.2-0.5,0.8-0.9,1.3-0.6c0.8,0.2,1.4,0.5,1.9,0.9h0.1
				c0.9,0.4,1.6,0.9,2.3,0.3l1.3-1.1c0.4-0.3,1.1-0.3,1.5,0.1c0.3,0.4,0.3,1.1-0.1,1.5l-1.3,1.1c-1.6,1.3-2.9,0.6-4.5-0.1l0,0
				C-374.8,276.8-375.3,276.6-375.9,276.4z"/>
			<path class="st1" d="M-368,252.6c0,0.5-0.4,1.1-1.1,1.1c-0.5,0-1.1-0.4-1.1-1.1v-4c0-0.5,0.4-1.1,1.1-1.1c0.5,0,1.1,0.4,1.1,1.1
				V252.6z"/>
			<path class="st1" d="M-362.9,274.4c0.5-0.2,1.2,0.1,1.3,0.6c0.2,0.5-0.1,1.2-0.6,1.3c-0.5,0.2-1.1,0.4-1.6,0.8l0,0
				c-1.6,0.8-2.9,1.4-4.5,0.1l-1.3-1.1c-0.4-0.3-0.5-1-0.1-1.5c0.3-0.4,1-0.5,1.5-0.1l1.3,1.1c0.5,0.4,1.3,0.1,2.3-0.3h0.1
				C-364.2,274.9-363.7,274.6-362.9,274.4z"/>
			<path class="st1" d="M-355.9,263.8c3.4,3.4,5.4,8,5.4,13.2c0,2.1-0.3,4-0.9,5.7c-0.6,1.8-1.5,3.7-2.7,5.2
				c-1.9,2.6-3.5,4.3-4.6,5.7c-2.2,2.4-3.1,3.5-3.1,7c0,0.5-0.4,1.1-1.1,1.1l0,0h-6.1h-6.2c-0.5,0-1.1-0.4-1.1-1.1
				c0-3.5-1-4.5-3.1-6.9l0,0l0,0c-1.2-1.3-2.8-3-4.8-5.7c-1.2-1.5-2.1-3.4-2.7-5.2c-0.5-1.8-0.9-3.8-0.9-5.7c0-2.5,0.5-5,1.4-7.1
				l0,0c1-2.3,2.3-4.3,4-6.1c1.7-1.7,3.8-3.1,6.1-4l0,0c2.2-0.9,4.6-1.4,7.1-1.4c2.5,0,4.9,0.5,7.1,1.4
				C-359.7,260.7-357.6,262.1-355.9,263.8L-355.9,263.8z M-352.5,276.9c0-4.5-1.8-8.6-4.9-11.7c-1.5-1.5-3.4-2.8-5.4-3.6
				c-1.9-0.8-4.1-1.3-6.3-1.3c-2.3,0-4.4,0.4-6.3,1.3l0,0l0,0c-2.1,0.9-3.8,2.1-5.4,3.6c-1.5,1.5-2.7,3.4-3.6,5.3v0.1
				c-0.8,1.9-1.3,4.1-1.3,6.3c0,1.8,0.3,3.6,0.8,5.1c0.5,1.6,1.4,3.2,2.4,4.6c1.8,2.6,3.5,4.3,4.6,5.6l0,0c2.4,2.6,3.5,3.8,3.7,7.2
				h5.1h5.1c0.2-3.5,1.3-4.8,3.7-7.3c1.2-1.3,2.7-2.9,4.5-5.5c1-1.4,1.8-2.9,2.4-4.6C-352.9,280.5-352.5,278.7-352.5,276.9z"/>
			<path class="st1" d="M-372.4,314.5c-0.5,0-1.1-0.4-1.1-1.1c0-0.6,0.4-1.1,1.1-1.1h6.8c0.5,0,1.1,0.4,1.1,1.1
				c0,0.6-0.4,1.1-1.1,1.1H-372.4z"/>
			<path class="st1" d="M-356.2,256.4c-0.3,0.5-1,0.6-1.4,0.4c-0.5-0.3-0.6-1-0.4-1.4l2.1-3.5c0.3-0.5,1-0.6,1.4-0.4
				c0.5,0.3,0.6,1,0.4,1.4L-356.2,256.4z"/>
			<path class="st1" d="M-380.1,255.3c0.3,0.5,0.1,1.2-0.4,1.4c-0.5,0.3-1.2,0.1-1.4-0.4l-2.1-3.5c-0.3-0.5-0.1-1.2,0.4-1.4
				c0.5-0.3,1.2-0.1,1.4,0.4L-380.1,255.3z"/>
			<path class="st1" d="M-389.2,263.6c0.5,0.3,0.6,1,0.4,1.4c-0.3,0.5-1,0.6-1.4,0.4l-3.5-2.1c-0.5-0.3-0.6-1-0.4-1.4
				c0.3-0.5,1-0.6,1.4-0.4L-389.2,263.6z"/>
			<path class="st1" d="M-347.9,265.4c-0.5,0.3-1.2,0.1-1.4-0.4c-0.3-0.5-0.1-1.2,0.4-1.4l3.5-2.1c0.5-0.3,1.2-0.1,1.4,0.4
				c0.3,0.5,0.1,1.2-0.4,1.4L-347.9,265.4z"/>
			<path class="st1" d="M-380,281.1c0.2,0.5,0,1.2-0.5,1.4c-0.5,0.2-1.2,0-1.4-0.5c-0.3-0.9-0.6-1.7-0.9-2.6s-0.3-1.8-0.3-2.8
				c0-0.5,0.4-1.1,1.1-1.1c0.5,0,1.1,0.4,1.1,1.1c0,0.9,0.1,1.6,0.2,2.4C-380.5,279.6-380.2,280.4-380,281.1L-380,281.1z
				 M-380,271.9c-0.2,0.5-0.9,0.8-1.4,0.5c-0.5-0.2-0.8-0.9-0.5-1.4c0.3-0.9,0.8-1.6,1.3-2.4l0,0l0,0c0.5-0.8,1.1-1.4,1.7-2.1
				c0.6-0.6,1.3-1.2,2.1-1.7l0,0c0.8-0.5,1.5-0.9,2.4-1.3c0.9-0.3,1.7-0.6,2.6-0.9s1.8-0.3,2.8-0.3c0.5,0,1.1,0.4,1.1,1.1
				c0,0.6-0.4,1.1-1.1,1.1c-0.9,0-1.6,0.1-2.4,0.2c-0.8,0.1-1.5,0.4-2.3,0.6c-0.6,0.3-1.4,0.6-1.9,1.1l0,0l0,0
				c-0.6,0.4-1.2,0.9-1.7,1.4s-1,1.1-1.4,1.7l0,0C-379.2,270.5-379.7,271.2-380,271.9z"/>
		</g>
	</g>
</g>
</svg>
