<?xml version="1.0" encoding="utf-8"?>
<!-- Generator: Adobe Illustrator 19.0.0, SVG Export Plug-In . SVG Version: 6.00 Build 0)  -->
<svg version="1.1" id="icono" xmlns="http://www.w3.org/2000/svg" xmlns:xlink="http://www.w3.org/1999/xlink" x="0px" y="0px"
	 viewBox="-424 228 110 106" style="enable-background:new -424 228 110 106;" xml:space="preserve">
<style type="text/css">
	.st0{fill:#FF9000;}
	.st1{fill:none;stroke:#FFFFFF;stroke-width:2;stroke-linecap:round;}
</style>
<path id="forma_cesticom" class="st0" d="M-371,228c31.3-0.2,57,20.8,57,53c0,15.7-13,52-13,52s-24.4,1-38,1c-35.8,0-59-23.7-59-53
	C-423.9,251.8-400.2,228.1-371,228z"/>
<g>
	<path id="Rectángulo_redondeado_516" class="st1" d="M-379.7,257h21.3c3.1,0,5.6,2.5,5.6,5.6v40.8c0,3.1-2.5,5.6-5.6,5.6h-21.3
		c-3.1,0-5.6-2.5-5.6-5.6v-40.8C-385.2,259.5-382.7,257-379.7,257z"/>
	<path id="Forma_517" class="st1" d="M-384.3,263.5h30.6"/>
	<path id="Forma_517_copia" class="st1" d="M-384.3,300.6h30.6"/>
	<circle id="Elipse_519" class="st1" cx="-369" cy="304.8" r="1.4"/>
	<path id="Forma_520" class="st1" d="M-373.2,277.5l-3.7,3.7l3.7,3.7"/>
	<path id="Forma_522" class="st1" d="M-371.3,290.4l3.7-17.6"/>
	<path id="Forma_520_copia" class="st1" d="M-364.8,277.5l4.6,4.6l-4.6,4.6"/>
</g>
</svg>
