<?xml version="1.0" encoding="utf-8"?>
<!-- Generator: Adobe Illustrator 19.0.0, SVG Export Plug-In . SVG Version: 6.00 Build 0)  -->
<svg version="1.1" id="icono" xmlns="http://www.w3.org/2000/svg" xmlns:xlink="http://www.w3.org/1999/xlink" x="0px" y="0px"
	 viewBox="-424 228 110 106" style="enable-background:new -424 228 110 106;" xml:space="preserve">
<style type="text/css">
	.st0{fill:#FF9000;}
	.st1{fill:none;stroke:#FFFFFF;stroke-width:2;stroke-linecap:round;stroke-linejoin:round;}
	.st2{fill:#FFFFFF;}
	.st3{fill:none;stroke:#FFFFFF;stroke-width:2;stroke-linecap:round;}
</style>
<path id="forma_cesticom" class="st0" d="M-371,228c31.3-0.2,57,20.8,57,53c0,15.7-13,52-13,52s-24.4,1-38,1c-35.8,0-59-23.7-59-53
	C-423.9,251.8-400.2,228.1-371,228z"/>
<g>
	<path id="Forma_510" class="st1" d="M-394.6,254.9l8,4v33c0,0-1.7,5,4,5h30"/>
	<circle id="Elipse_512" class="st1" cx="-377.6" cy="302" r="5.1"/>
	<circle id="Elipse_512_copia" class="st1" cx="-352.6" cy="302" r="5.1"/>
	<g id="Grupo_7">
		<path id="Rectángulo_redondeado_511" class="st2" d="M-366.6,272h-19v9c0,2.8,2.2,5,5,5h27c2.8,0,4-2.2,4-5v-9h-3l2-2h3v13
			c0,2.8-2.2,5-5,5h-30c-2.8,0-5-2.2-5-5v-13h23L-366.6,272z"/>
	</g>
	<path id="Forma_542" class="st3" d="M-372.6,276l5,5l12-12"/>
</g>
</svg>
