<?xml version="1.0" encoding="utf-8"?>
<!-- Generator: Adobe Illustrator 19.0.0, SVG Export Plug-In . SVG Version: 6.00 Build 0)  -->
<svg version="1.1" id="icono" xmlns="http://www.w3.org/2000/svg" xmlns:xlink="http://www.w3.org/1999/xlink" x="0px" y="0px"
	 viewBox="-424 228 110 106" style="enable-background:new -424 228 110 106;" xml:space="preserve">
<style type="text/css">
	.st0{fill:#FF9000;}
	.st1{fill:#FFFFFF;stroke:#FFFFFF;stroke-width:0.25;stroke-miterlimit:10;}
</style>
<path id="forma_cesticom" class="st0" d="M-371,228c31.3-0.2,57,20.8,57,53c0,15.7-13,52-13,52s-24.4,1-38,1c-35.8,0-59-23.7-59-53
	C-423.9,251.8-400.2,228.1-371,228z"/>
<g>
	<g>
		<g>
			<path class="st1" d="M-346.7,257.9h-44.7c-2.3,0-4.2,1.9-4.2,4.2v6.1c0,0.5,0.4,0.9,0.9,0.9s0.9-0.4,0.9-0.9v-6.1
				c0-1.4,1.1-2.5,2.5-2.5h44.7c1.4,0,2.5,1.1,2.5,2.5v29.5h-3.4v-10.7c0-1.7-1.4-3-3-3h-12.6c-1.7,0-3,1.4-3,3v16.5h-25.1
				c-1.4,0-2.5-1.1-2.5-2.5v-1.6h25.6c0.5,0,0.9-0.4,0.9-0.9s-0.4-0.9-0.9-0.9h-25.6V266c0-0.5-0.4-0.9-0.9-0.9s-0.9,0.4-0.9,0.9v29
				c0,2.3,1.9,4.2,4.2,4.2h14.8l-2.1,5h-4.2c-0.5,0-0.9,0.4-0.9,0.9s0.4,0.9,0.9,0.9h4.7h9.6h0.1c0.5,0,0.9-0.4,0.9-0.9
				s-0.4-0.9-0.9-0.9h-0.1h-8.3l1.5-3.5h9.1v4.4c0,1.7,1.4,3,3,3h12.6c1.7,0,3-1.4,3-3v-11.7h3.4v1.6c0,1-0.6,1.9-1.5,2.3
				c-0.4,0.2-0.6,0.7-0.5,1.1c0.1,0.3,0.5,0.5,0.8,0.5c0.1,0,0.2,0,0.3-0.1c1.6-0.7,2.6-2.2,2.6-3.9v-32.8
				C-342.4,259.8-344.3,257.9-346.7,257.9z M-364.5,280.9L-364.5,280.9c0-0.7,0.6-1.3,1.3-1.3h12.6c0.7,0,1.3,0.6,1.3,1.3V301h-15.2
				L-364.5,280.9L-364.5,280.9z M-349.3,305.1c0,0.7-0.6,1.3-1.3,1.3h-12.6c-0.7,0-1.3-0.6-1.3-1.3v-2.3h15.2L-349.3,305.1
				L-349.3,305.1z"/>
		</g>
	</g>
	<g>
		<g>
			<path class="st1" d="M-356.1,304.1c-0.5-0.8-1.7-0.5-1.9,0.4c-0.1,0.4,0.1,0.9,0.5,1.1s0.9,0.2,1.2-0.1
				C-355.9,305.1-355.8,304.5-356.1,304.1z"/>
		</g>
	</g>
	<g>
		<g>
			<path class="st1" d="M-368.2,295.3c-0.1-0.3-0.5-0.5-0.8-0.5c-0.4,0-0.7,0.2-0.8,0.6c-0.1,0.3,0,0.7,0.3,1c0.3,0.2,0.7,0.3,1,0.1
				C-368.2,296.1-368,295.7-368.2,295.3z"/>
		</g>
	</g>
	<g>
		<g>
			<path class="st1" d="M-353.9,281.1h-5.7c-0.5,0-0.9,0.4-0.9,0.9s0.4,0.9,0.9,0.9h5.7c0.5,0,0.9-0.4,0.9-0.9
				S-353.4,281.1-353.9,281.1z"/>
		</g>
	</g>
</g>
</svg>
