<?xml version="1.0" encoding="utf-8"?>
<!-- Generator: Adobe Illustrator 19.0.0, SVG Export Plug-In . SVG Version: 6.00 Build 0)  -->
<svg version="1.1" id="icono" xmlns="http://www.w3.org/2000/svg" xmlns:xlink="http://www.w3.org/1999/xlink" x="0px" y="0px"
	 viewBox="-424 228 110 106" style="enable-background:new -424 228 110 106;" xml:space="preserve">
<style type="text/css">
	.st0{fill:#FF9000;}
	.st1{fill:#FFFFFF;}
</style>
<path id="forma_cesticom" class="st0" d="M-371,228c31.3-0.2,57,20.8,57,53c0,15.7-13,52-13,52s-24.4,1-38,1c-35.8,0-59-23.7-59-53
	C-423.9,251.8-400.2,228.1-371,228z"/>
<g>
	<path class="st1" d="M-386.4,262.6c-2.2,0-4,1.8-4,4c0,2.2,1.8,4,4,4s4-1.8,4-4C-382.4,264.4-384.1,262.6-386.4,262.6z
		 M-386.4,268.8c-1.2,0-2.2-1-2.2-2.2s1-2.2,2.2-2.2s2.2,1,2.2,2.2S-385.1,268.8-386.4,268.8z"/>
	<circle class="st1" cx="-351.2" cy="265.3" r="0.9"/>
	<circle class="st1" cx="-354.8" cy="265.3" r="0.9"/>
	<circle class="st1" cx="-349.4" cy="267.9" r="0.9"/>
	<circle class="st1" cx="-353" cy="267.9" r="0.9"/>
	<circle class="st1" cx="-358.3" cy="265.3" r="0.9"/>
	<circle class="st1" cx="-356.5" cy="267.9" r="0.9"/>
	<circle class="st1" cx="-361.9" cy="265.3" r="0.9"/>
	<circle class="st1" cx="-360.1" cy="267.9" r="0.9"/>
	<circle class="st1" cx="-365.4" cy="265.3" r="0.9"/>
	<circle class="st1" cx="-363.7" cy="267.9" r="0.9"/>
	<path class="st1" d="M-342.3,271.8v-10.5c0-2.3-1.8-4.1-4.1-4.1h-45.2c-2.3,0-4.1,1.8-4.1,4.1v10.5c0,1.3,0.6,2.5,1.6,3.2
		c-1,0.8-1.6,1.9-1.6,3.2v10.5c0,2.3,1.8,4.1,4.1,4.1h22.6h22.6c2.3,0,4.1-1.8,4.1-4.1v-10.5c0-1.3-0.6-2.5-1.6-3.2
		C-342.9,274.3-342.3,273.1-342.3,271.8z M-344.1,278.3v10.5c0,1.3-1,2.3-2.3,2.3h-45.2c-1.3,0-2.3-1-2.3-2.3v-10.5
		c0-1.3,1-2.3,2.3-2.3h45.2C-345.1,275.9-344.1,277-344.1,278.3z M-391.6,274.2c-1.3,0-2.3-1-2.3-2.3v-10.5c0-1.3,1-2.3,2.3-2.3
		h45.2c1.3,0,2.3,1,2.3,2.3v10.5c0,1.3-1,2.3-2.3,2.3L-391.6,274.2L-391.6,274.2z"/>
	<path class="st1" d="M-386.4,287.5c2.2,0,4-1.8,4-4c0-2.2-1.8-4-4-4s-4,1.8-4,4C-390.4,285.7-388.6,287.5-386.4,287.5z
		 M-386.4,281.3c1.2,0,2.2,1,2.2,2.2s-1,2.2-2.2,2.2s-2.2-1-2.2-2.2S-387.6,281.3-386.4,281.3z"/>
	<path class="st1" d="M-367.7,302.1c0.2,0.1,0.4,0.3,0.6,0.4c0.2,0.2,0.4,0.3,0.6,0.3c0.2,0,0.5-0.1,0.6-0.3c0.3-0.4,0.3-0.9,0-1.3
		c-0.3-0.3-0.6-0.5-0.9-0.7c-0.4-0.2-1-0.1-1.2,0.3C-368.3,301.3-368.1,301.9-367.7,302.1z"/>
	<path class="st1" d="M-367.7,306.7c-0.2,0.1-0.4,0.2-0.6,0.3c-0.5,0.1-0.8,0.6-0.6,1.1c0.1,0.4,0.5,0.7,0.9,0.7c0.1,0,0.2,0,0.2,0
		c0.4-0.1,0.7-0.3,1.1-0.4c0.4-0.2,0.6-0.8,0.3-1.2C-366.7,306.6-367.2,306.5-367.7,306.7z"/>
	<path class="st1" d="M-365.4,303.5c-0.5,0-0.9,0.4-0.9,0.9c0,0.2,0,0.5-0.1,0.7c-0.1,0.5,0.2,1,0.6,1.1c0.1,0,0.2,0,0.2,0
		c0.4,0,0.8-0.3,0.9-0.7c0.1-0.4,0.2-0.8,0.2-1.1v0C-364.5,303.9-364.9,303.5-365.4,303.5z"/>
	<path class="st1" d="M-370.3,306.7c-0.2-0.1-0.4-0.3-0.6-0.4c-0.3-0.3-0.9-0.3-1.3,0c-0.3,0.3-0.3,0.9,0,1.3
		c0.3,0.3,0.6,0.5,0.9,0.7c0.1,0.1,0.3,0.1,0.4,0.1c0.3,0,0.6-0.2,0.8-0.4C-369.8,307.5-369.9,307-370.3,306.7z"/>
	<path class="st1" d="M-370.2,300.1c-0.4,0.1-0.7,0.3-1.1,0.5c-0.4,0.2-0.6,0.8-0.3,1.2c0.2,0.3,0.5,0.4,0.8,0.4
		c0.2,0,0.3,0,0.5-0.1c0.2-0.1,0.4-0.2,0.6-0.3c0.5-0.1,0.8-0.6,0.6-1.1C-369.2,300.3-369.7,300-370.2,300.1z"/>
	<path class="st1" d="M-371.7,304.4c0-0.2,0-0.5,0.1-0.7c0.1-0.5-0.2-1-0.6-1.1c-0.5-0.1-1,0.2-1.1,0.6c-0.1,0.4-0.1,0.7-0.1,1.1
		l0.9,0h-0.9c0,0.5,0.4,0.9,0.9,0.9C-372.1,305.3-371.7,304.9-371.7,304.4z"/>
	<circle class="st1" cx="-351.2" cy="282.2" r="0.9"/>
	<circle class="st1" cx="-354.8" cy="282.2" r="0.9"/>
	<circle class="st1" cx="-349.4" cy="284.8" r="0.9"/>
	<circle class="st1" cx="-353" cy="284.8" r="0.9"/>
	<circle class="st1" cx="-358.3" cy="282.2" r="0.9"/>
	<circle class="st1" cx="-356.5" cy="284.8" r="0.9"/>
	<circle class="st1" cx="-361.9" cy="282.2" r="0.9"/>
	<circle class="st1" cx="-360.1" cy="284.8" r="0.9"/>
	<circle class="st1" cx="-365.4" cy="282.2" r="0.9"/>
	<circle class="st1" cx="-363.7" cy="284.8" r="0.9"/>
	<path class="st1" d="M-376.1,303.5h-0.9c-0.5,0-0.9,0.4-0.9,0.9c0,0.5,0.4,0.9,0.9,0.9h0.9c0.5,0,0.9-0.4,0.9-0.9
		C-375.2,303.9-375.6,303.5-376.1,303.5z"/>
	<path class="st1" d="M-383.2,303.5h-0.9c-0.5,0-0.9,0.4-0.9,0.9c0,0.5,0.4,0.9,0.9,0.9h0.9c0.5,0,0.9-0.4,0.9-0.9
		C-382.4,303.9-382.7,303.5-383.2,303.5z"/>
	<path class="st1" d="M-379.7,303.5h-0.9c-0.5,0-0.9,0.4-0.9,0.9c0,0.5,0.4,0.9,0.9,0.9h0.9c0.5,0,0.9-0.4,0.9-0.9
		C-378.8,303.9-379.2,303.5-379.7,303.5z"/>
	<path class="st1" d="M-393.9,303.5h-0.9c-0.5,0-0.9,0.4-0.9,0.9c0,0.5,0.4,0.9,0.9,0.9h0.9c0.5,0,0.9-0.4,0.9-0.9
		C-393,303.9-393.4,303.5-393.9,303.5z"/>
	<path class="st1" d="M-390.4,303.5h-0.9c-0.5,0-0.9,0.4-0.9,0.9c0,0.5,0.4,0.9,0.9,0.9h0.9c0.5,0,0.9-0.4,0.9-0.9
		C-389.5,303.9-389.9,303.5-390.4,303.5z"/>
	<path class="st1" d="M-386.8,303.5h-0.9c-0.5,0-0.9,0.4-0.9,0.9c0,0.5,0.4,0.9,0.9,0.9h0.9c0.5,0,0.9-0.4,0.9-0.9
		C-385.9,303.9-386.3,303.5-386.8,303.5z"/>
	<path class="st1" d="M-361,303.5h-0.9c-0.5,0-0.9,0.4-0.9,0.9c0,0.5,0.4,0.9,0.9,0.9h0.9c0.5,0,0.9-0.4,0.9-0.9
		C-360.1,303.9-360.5,303.5-361,303.5z"/>
	<path class="st1" d="M-353.9,303.5h-0.9c-0.5,0-0.9,0.4-0.9,0.9c0,0.5,0.4,0.9,0.9,0.9h0.9c0.5,0,0.9-0.4,0.9-0.9
		C-353,303.9-353.4,303.5-353.9,303.5z"/>
	<path class="st1" d="M-357.4,303.5h-0.9c-0.5,0-0.9,0.4-0.9,0.9c0,0.5,0.4,0.9,0.9,0.9h0.9c0.5,0,0.9-0.4,0.9-0.9
		C-356.5,303.9-356.9,303.5-357.4,303.5z"/>
	<path class="st1" d="M-343.2,303.5h-0.9c-0.5,0-0.9,0.4-0.9,0.9c0,0.5,0.4,0.9,0.9,0.9h0.9c0.5,0,0.9-0.4,0.9-0.9
		C-342.3,303.9-342.7,303.5-343.2,303.5z"/>
	<path class="st1" d="M-350.3,303.5h-0.9c-0.5,0-0.9,0.4-0.9,0.9c0,0.5,0.4,0.9,0.9,0.9h0.9c0.5,0,0.9-0.4,0.9-0.9
		C-349.4,303.9-349.8,303.5-350.3,303.5z"/>
	<path class="st1" d="M-346.7,303.5h-0.9c-0.5,0-0.9,0.4-0.9,0.9c0,0.5,0.4,0.9,0.9,0.9h0.9c0.5,0,0.9-0.4,0.9-0.9
		C-345.9,303.9-346.3,303.5-346.7,303.5z"/>
	<path class="st1" d="M-368.1,298.2v-0.9c0-0.5-0.4-0.9-0.9-0.9s-0.9,0.4-0.9,0.9v0.9c0,0.5,0.4,0.9,0.9,0.9
		S-368.1,298.7-368.1,298.2z"/>
	<path class="st1" d="M-369.9,293.7v0.9c0,0.5,0.4,0.9,0.9,0.9s0.9-0.4,0.9-0.9v-0.9c0-0.5-0.4-0.9-0.9-0.9
		S-369.9,293.2-369.9,293.7z"/>
</g>
</svg>
