<?xml version="1.0" encoding="utf-8"?>
<!-- Generator: Adobe Illustrator 19.0.0, SVG Export Plug-In . SVG Version: 6.00 Build 0)  -->
<svg version="1.1" id="icono" xmlns="http://www.w3.org/2000/svg" xmlns:xlink="http://www.w3.org/1999/xlink" x="0px" y="0px"
	 viewBox="-424 228 110 106" style="enable-background:new -424 228 110 106;" xml:space="preserve">
<style type="text/css">
	.st0{fill:#FF9000;}
	.st1{fill:#FFFFFF;}
</style>
<path id="forma_cesticom" class="st0" d="M-371,228c31.3-0.2,57,20.8,57,53c0,15.7-13,52-13,52s-24.4,1-38,1c-35.8,0-59-23.7-59-53
	C-423.9,251.8-400.2,228.1-371,228z"/>
<g>
	<g>
		<g>
			<path class="st1" d="M-344.3,277.7c-0.3-2.3-1.2-4.1-1.6-4.8c0.3-4.7-0.6-8.3-2.8-10.6c-1.7-1.8-3.6-2.3-4.6-2.4
				c-1.5-3.2-4.1-3.8-5.6-3.7c-2.9-2.7-5.6-2.8-7.4-2.3c-1.2,0.3-2.1,0.8-2.7,1.3c-0.6-0.4-1.5-1-2.7-1.3c-1.8-0.4-4.5-0.4-7.4,2.3
				c-1.6-0.2-4.1,0.5-5.6,3.7c-1,0.1-2.9,0.6-4.6,2.4c-2.1,2.3-3.1,5.9-2.8,10.6c-0.4,0.7-1.3,2.5-1.6,4.8c-0.3,2.6,0.2,6.2,4.2,9.1
				c-0.5,2.8,0,7.5,4.4,9.8c-0.2,1-0.3,2.7,0.6,4.2c0.7,1.2,1.9,1.9,3.5,2.3c0.8,1.2,3.6,5.1,7,5.1c0,0,0,0,0.1,0
				c1.9,0,3.5-1.1,5-3.3c1.5,2.1,3.1,3.2,5,3.3c3.5,0.1,6.3-3.8,7.1-5.1c1.6-0.4,2.8-1.1,3.5-2.3c0.9-1.5,0.8-3.2,0.6-4.2
				c4.4-2.3,4.8-7.1,4.4-9.8C-344.5,283.9-344,280.3-344.3,277.7z M-350.1,285.6c-0.3,0.2-0.5,0.6-0.4,1c0.1,0.3,1.5,6.3-3.9,8.6
				c-0.5,0.2-0.7,0.7-0.5,1.2c0,0,0.6,2-0.2,3.5c-0.5,0.8-1.3,1.3-2.6,1.5c-0.3,0-0.5,0.2-0.7,0.5c-0.7,1.3-3.2,4.5-5.6,4.5
				c0,0,0,0,0,0c-1.5,0-2.9-1.2-4.2-3.6c-0.2-0.3-0.5-0.5-0.9-0.5s-0.7,0.2-0.8,0.5c-1.3,2.4-2.7,3.6-4.2,3.6
				c-2.4,0-4.9-3.2-5.7-4.5c-0.1-0.2-0.4-0.4-0.7-0.5c-1.2-0.2-2.1-0.7-2.6-1.5c-0.9-1.4-0.2-3.5-0.2-3.5c0.2-0.5-0.1-1-0.5-1.2
				c-5.4-2.3-3.9-8.4-3.9-8.6c0.1-0.4-0.1-0.8-0.4-1c-7-4.7-2.6-11.6-2.4-11.9c0.1-0.2,0.2-0.4,0.2-0.6c-0.3-4.3,0.4-7.5,2.2-9.4
				c1.7-1.9,3.8-1.9,3.9-1.9c0.4,0,0.7-0.2,0.9-0.6c1.1-2.6,2.8-3,3.6-3c0.3,0,0.5,0,0.6,0.1c0.3,0.1,0.7,0,0.9-0.2
				c1.9-1.9,3.9-2.7,5.9-2.2c1.5,0.4,2.5,1.3,2.5,1.3c0.2,0.2,0.4,0.3,0.7,0.3h0c0.3,0,0.5-0.1,0.7-0.3c0,0,1-0.9,2.4-1.3
				c2-0.5,4,0.2,5.9,2.2c0.2,0.2,0.6,0.3,0.9,0.3c0.3-0.1,2.8-0.5,4.2,3c0.1,0.4,0.5,0.6,0.9,0.6c0.1,0,2.2,0,3.9,1.9
				c1.8,1.9,2.5,5.1,2.2,9.4c0,0.2,0,0.4,0.2,0.6c0,0,1.2,1.8,1.5,4.2C-345.8,281.1-347.1,283.7-350.1,285.6z"/>
		</g>
	</g>
	<g>
		<g>
			<path class="st1" d="M-353.1,260.5c-0.2-0.5-0.7-0.8-1.2-0.6c-5.9,2-5.9,6.9-5.9,7.1c0,0.5,0.4,0.9,0.9,0.9c0,0,0,0,0,0
				c0.5,0,0.9-0.4,0.9-0.9c0-0.2,0.1-3.8,4.7-5.3C-353.2,261.6-352.9,261-353.1,260.5z"/>
		</g>
	</g>
	<g>
		<g>
			<path class="st1" d="M-348.8,285.9c-0.3-0.4-0.9-0.5-1.3-0.2c-1.5,1.2-2.9,1.6-4.1,1.2c-2.1-0.6-3.2-3.4-3.2-3.5
				c-0.2-0.5-0.7-0.7-1.2-0.6c-0.5,0.2-0.7,0.7-0.6,1.2c0.1,0.2,1.4,3.7,4.5,4.6c0.5,0.1,0.9,0.2,1.4,0.2c1.4,0,2.9-0.6,4.4-1.8
				C-348.6,286.9-348.5,286.3-348.8,285.9z"/>
		</g>
	</g>
	<g>
		<g>
			<path class="st1" d="M-364.8,286.6c-0.4-0.4-1-0.4-1.3,0c-0.4,0.4-0.4,1,0,1.3c3.1,3.1,2.4,6,2.4,6.2c-0.1,0.5,0.2,1,0.7,1.1
				c0.1,0,0.2,0,0.2,0c0.4,0,0.8-0.3,0.9-0.7C-361.9,294.4-361,290.5-364.8,286.6z"/>
		</g>
	</g>
	<g>
		<g>
			<path class="st1" d="M-350.2,277.8c-0.2-0.5-0.7-0.7-1.2-0.6c-0.2,0.1-4.7,1.6-7.1-1.5c-1.2-1.7-1.8-3.1-2.2-4.2
				c-0.5-1.4-1-2.7-2.7-2.9c-0.5,0-1,0.3-1,0.9c0,0.5,0.3,1,0.9,1c0.4,0,0.5,0.3,1.1,1.6c0.4,1.2,1.1,2.8,2.5,4.7
				c1.6,2.2,3.9,2.7,5.8,2.7c1.8,0,3.3-0.5,3.4-0.6C-350.2,278.8-350,278.3-350.2,277.8z"/>
		</g>
	</g>
	<g>
		<g>
			<path class="st1" d="M-369,255.5c-0.5,0-0.9,0.4-0.9,0.9v46.8c0,0.5,0.4,0.9,0.9,0.9s0.9-0.4,0.9-0.9v-46.8
				C-368.1,255.9-368.5,255.5-369,255.5z"/>
		</g>
	</g>
	<g>
		<g>
			<path class="st1" d="M-362.1,263.6c0-0.5-0.4-0.9-1-0.9c-0.5,0-0.9,0.4-0.9,1c0,0.1,0.1,5.9-2.9,9.7c-0.3,0.4-0.3,1,0.2,1.3
				c0.2,0.1,0.4,0.2,0.6,0.2c0.3,0,0.6-0.1,0.7-0.4C-362.1,270.2-362.1,263.9-362.1,263.6z"/>
		</g>
	</g>
	<g>
		<g>
			<path class="st1" d="M-360.2,292.6c-4.2,0-6.1,5.7-6.2,5.9c-0.2,0.5,0.1,1,0.6,1.2c0.1,0,0.2,0,0.3,0c0.4,0,0.8-0.2,0.9-0.6
				c0.4-1.3,2.1-4.7,4.4-4.7c0.5,0,0.9-0.4,0.9-0.9C-359.2,293-359.7,292.6-360.2,292.6z"/>
		</g>
	</g>
	<g>
		<g>
			<path class="st1" d="M-359.1,256.1c-0.4-0.3-1-0.2-1.3,0.2l-2.3,3c-0.3,0.4-0.2,1,0.2,1.3c0.2,0.1,0.4,0.2,0.6,0.2
				c0.3,0,0.6-0.1,0.8-0.4l2.3-3C-358.6,257-358.7,256.5-359.1,256.1z"/>
		</g>
	</g>
	<g>
		<g>
			<path class="st1" d="M-378.5,262.3c-2.1,0-3.8,1.7-3.8,3.8s1.7,3.8,3.8,3.8s3.8-1.7,3.8-3.8S-376.4,262.3-378.5,262.3z
				 M-378.5,267.9c-1,0-1.9-0.8-1.9-1.9c0-1,0.8-1.9,1.9-1.9c1,0,1.9,0.8,1.9,1.9C-376.6,267.1-377.4,267.9-378.5,267.9z"/>
		</g>
	</g>
	<g>
		<g>
			<path class="st1" d="M-385.1,274.5c-2.1,0-3.8,1.7-3.8,3.8s1.7,3.8,3.8,3.8s3.8-1.7,3.8-3.8C-381.3,276.2-383,274.5-385.1,274.5z
				 M-385.1,280.2c-1,0-1.9-0.8-1.9-1.9s0.8-1.9,1.9-1.9c1,0,1.9,0.8,1.9,1.9S-384,280.2-385.1,280.2z"/>
		</g>
	</g>
	<g>
		<g>
			<path class="st1" d="M-375.6,283c-2.1,0-3.8,1.7-3.8,3.8s1.7,3.8,3.8,3.8s3.8-1.7,3.8-3.8S-373.5,283-375.6,283z M-375.6,288.7
				c-1,0-1.9-0.8-1.9-1.9c0-1,0.8-1.9,1.9-1.9s1.9,0.8,1.9,1.9C-373.7,287.9-374.6,288.7-375.6,288.7z"/>
		</g>
	</g>
	<g>
		<g>
			<path class="st1" d="M-375.6,293.4c-2.1,0-3.8,1.7-3.8,3.8s1.7,3.8,3.8,3.8s3.8-1.7,3.8-3.8S-373.5,293.4-375.6,293.4z
				 M-375.6,299.1c-1,0-1.9-0.8-1.9-1.9s0.8-1.9,1.9-1.9s1.9,0.8,1.9,1.9C-373.7,298.2-374.6,299.1-375.6,299.1z"/>
		</g>
	</g>
	<g>
		<g>
			<path class="st1" d="M-378.5,267.9c-0.5,0-0.9,0.4-0.9,0.9v9.4c0,0.5,0.4,0.9,0.9,0.9c0.5,0,0.9-0.4,0.9-0.9v-9.4
				C-377.5,268.3-377.9,267.9-378.5,267.9z"/>
		</g>
	</g>
	<g>
		<g>
			<path class="st1" d="M-375.6,277.4h-6.6c-0.5,0-0.9,0.4-0.9,0.9s0.4,0.9,0.9,0.9h6.6c0.5,0,0.9-0.4,0.9-0.9
				C-374.7,277.8-375.1,277.4-375.6,277.4z"/>
		</g>
	</g>
	<g>
		<g>
			<path class="st1" d="M-375.6,277.4c-0.5,0-0.9,0.4-0.9,0.9v5.7c0,0.5,0.4,0.9,0.9,0.9c0.5,0,0.9-0.4,0.9-0.9v-5.7
				C-374.7,277.8-375.1,277.4-375.6,277.4z"/>
		</g>
	</g>
	<g>
		<g>
			<path class="st1" d="M-375.6,288.7c-0.5,0-0.9,0.4-0.9,0.9v4.7c0,0.5,0.4,0.9,0.9,0.9c0.5,0,0.9-0.4,0.9-0.9v-4.7
				C-374.7,289.1-375.1,288.7-375.6,288.7z"/>
		</g>
	</g>
</g>
</svg>
