<?xml version="1.0" encoding="utf-8"?>
<!-- Generator: Adobe Illustrator 19.0.0, SVG Export Plug-In . SVG Version: 6.00 Build 0)  -->
<svg version="1.1" id="icono" xmlns="http://www.w3.org/2000/svg" xmlns:xlink="http://www.w3.org/1999/xlink" x="0px" y="0px"
	 viewBox="-424 228 110 106" style="enable-background:new -424 228 110 106;" xml:space="preserve">
<style type="text/css">
	.st0{fill:#FF9000;}
	.st1{fill:#FFFFFF;stroke:#FF9000;stroke-width:0.5;stroke-miterlimit:10;}
</style>
<path id="forma_cesticom" class="st0" d="M-371,228c31.3-0.2,57,20.8,57,53c0,15.7-13,52-13,52s-24.4,1-38,1c-35.8,0-59-23.7-59-53
	C-423.9,251.8-400.2,228.1-371,228z"/>
<g>
	<g>
		<g>
			<path class="st1" d="M-337.5,273.1l-14.4-14.4c-0.5-0.5-1.3-0.5-1.8,0l-5,5l-1-1c-0.8-0.8-2-1.3-3.2-1.3c-1.2,0-2.3,0.5-3.2,1.3
				c-0.8,0.8-1.3,2-1.3,3.2c0,1.2,0.5,2.3,1.3,3.2l1,1l-4.1,4.1l-5-5c-0.2-0.2-0.6-0.4-0.9-0.4s-0.7,0.1-0.9,0.4l-1.9,1.9
				c-0.4,0.4-0.8,0.6-1.4,0.6s-1-0.2-1.4-0.6c-0.7-0.7-0.7-2,0-2.7l1.9-1.9c0.5-0.5,0.5-1.3,0-1.8l-5.9-5.9c-0.5-0.5-1.3-0.5-1.8,0
				l-14.4,14.4c-0.7,0.7-1.1,1.7-1.1,2.8c0,1,0.4,2,1.1,2.8l28.7,28.7c0.7,0.7,1.7,1.1,2.8,1.1c1,0,2-0.4,2.8-1.1l28.7-28.7
				C-336,277.1-336,274.6-337.5,273.1z M-395.8,279.6l2.8-2.8c0.5-0.5,0.5-1.3,0-1.8c-0.5-0.5-1.3-0.5-1.8,0l-2.8,2.8l-1.1-1.1
				c-0.3-0.3-0.4-0.6-0.4-1c0-0.4,0.1-0.7,0.4-1l13.5-13.5l4.1,4.1l-1,1c-0.8,0.8-1.3,2-1.3,3.2c0,1.2,0.5,2.3,1.3,3.2
				c0.8,0.8,2,1.3,3.2,1.3s2.3-0.5,3.2-1.3l1-1l4.1,4.1l-5,5c-0.2,0.2-0.4,0.6-0.4,0.9s0.1,0.7,0.4,0.9l1.9,1.9c0,0,0.1,0.1,0.1,0.1
				c0,0,0,0.1,0.1,0.1c0,0,0,0,0.1,0.1c0,0,0.1,0.1,0.1,0.1c0,0,0,0,0,0c0.1,0.3,0.2,0.6,0.2,0.9c0,0.3-0.1,0.6-0.2,0.9c0,0,0,0,0,0
				c0,0,0,0.1-0.1,0.1c0,0,0,0-0.1,0.1c0,0,0,0.1-0.1,0.1c0,0-0.1,0.1-0.1,0.1c-0.4,0.4-0.8,0.6-1.4,0.6c-0.5,0-1-0.2-1.4-0.6
				l-1.9-1.9c-0.5-0.5-1.3-0.5-1.8,0l-5,5L-395.8,279.6z M-368.1,305.5c-0.3,0.3-0.6,0.4-1,0.4c-0.4,0-0.7-0.1-0.9-0.4l-13.5-13.5
				l4.1-4.1l1,1c0.8,0.8,2,1.3,3.2,1.3c1.2,0,2.3-0.5,3.2-1.3c0.1-0.1,0.1-0.1,0.2-0.2c0,0,0,0,0,0c0,0,0.1-0.1,0.1-0.1c0,0,0,0,0,0
				c0,0,0.1-0.1,0.1-0.1c0,0,0,0,0,0c0,0,0.1-0.1,0.1-0.1c0,0,0,0,0,0c0-0.1,0.1-0.1,0.1-0.2c0,0,0,0,0,0c0-0.1,0.1-0.1,0.1-0.2
				c0,0,0,0,0,0c0-0.1,0.1-0.1,0.1-0.2c0,0,0,0,0,0c0-0.1,0-0.1,0.1-0.2c0,0,0,0,0,0c0-0.1,0-0.1,0.1-0.2c0,0,0,0,0-0.1
				c0,0,0-0.1,0-0.1c0,0,0-0.1,0-0.1c0,0,0-0.1,0-0.1c0.2-0.7,0.2-1.5,0-2.2c0,0,0-0.1,0-0.1c0,0,0-0.1,0-0.1c0,0,0-0.1,0-0.1
				c0,0,0,0,0-0.1c0-0.1,0-0.1-0.1-0.2c0,0,0,0,0,0c0-0.1,0-0.1-0.1-0.2c0,0,0,0,0,0c0-0.1-0.1-0.1-0.1-0.2c0,0,0,0,0,0
				c0-0.1-0.1-0.1-0.1-0.2c0,0,0,0,0,0c0-0.1-0.1-0.1-0.1-0.2c0,0,0,0,0,0c0,0-0.1-0.1-0.1-0.1c0,0,0,0,0,0c0,0-0.1-0.1-0.1-0.1
				c0,0,0,0,0,0c0,0-0.1-0.1-0.1-0.1c0,0,0,0,0,0c-0.1-0.1-0.1-0.1-0.2-0.2l-1-1l4.1-4.1l5,5c0.2,0.2,0.6,0.4,0.9,0.4
				c0.3,0,0.7-0.1,0.9-0.4l1.9-1.9c0.4-0.4,0.8-0.6,1.4-0.6c0.5,0,1,0.2,1.4,0.6c0.4,0.4,0.6,0.8,0.6,1.4c0,0.5-0.2,1-0.6,1.4
				l-1.9,1.9c-0.5,0.5-0.5,1.3,0,1.8l5,5L-368.1,305.5z M-339.3,276.8l-13.5,13.5l-4.1-4.1l1-1c0.8-0.8,1.3-2,1.3-3.2
				c0-1.2-0.5-2.3-1.3-3.2c-0.8-0.8-2-1.3-3.2-1.3c-1.2,0-2.3,0.5-3.2,1.3l-1,1l-4.1-4.1l5-5c0.5-0.5,0.5-1.3,0-1.8l-1.9-1.9
				c-0.4-0.4-0.6-0.8-0.6-1.4c0-0.5,0.2-1,0.6-1.4c0.4-0.4,0.8-0.6,1.4-0.6c0.5,0,1,0.2,1.4,0.6l1.9,1.9c0.5,0.5,1.3,0.5,1.8,0l5-5
				l10.6,10.6l-2.8,2.8c-0.5,0.5-0.5,1.3,0,1.8c0.2,0.2,0.6,0.4,0.9,0.4c0.3,0,0.7-0.1,0.9-0.4l2.8-2.8l1.1,1.1
				C-338.8,275.4-338.8,276.2-339.3,276.8z"/>
		</g>
	</g>
	<g>
		<g>
			<path class="st1" d="M-345.8,277.4c-0.5-0.5-1.3-0.5-1.8,0l0,0c-0.5,0.5-0.5,1.3,0,1.8c0.2,0.2,0.6,0.4,0.9,0.4s0.7-0.1,0.9-0.4
				l0,0C-345.3,278.7-345.3,277.9-345.8,277.4z"/>
		</g>
	</g>
	<g>
		<g>
			<path class="st1" d="M-390.4,272.4c-0.5-0.5-1.3-0.5-1.8,0l0,0c-0.5,0.5-0.5,1.3,0,1.8c0.2,0.2,0.6,0.4,0.9,0.4
				c0.3,0,0.7-0.1,0.9-0.4l0,0C-389.9,273.7-389.9,272.9-390.4,272.4z"/>
		</g>
	</g>
</g>
</svg>
