<?xml version="1.0" encoding="utf-8"?>
<!-- Generator: Adobe Illustrator 19.0.0, SVG Export Plug-In . SVG Version: 6.00 Build 0)  -->
<svg version="1.1" id="icono" xmlns="http://www.w3.org/2000/svg" xmlns:xlink="http://www.w3.org/1999/xlink" x="0px" y="0px"
	 viewBox="-424 228 110 106" style="enable-background:new -424 228 110 106;" xml:space="preserve">
<style type="text/css">
	.st0{fill:#FF9000;}
	.st1{fill:#FFFFFF;}
</style>
<path id="forma_cesticom" class="st0" d="M-371,228c31.3-0.2,57,20.8,57,53c0,15.7-13,52-13,52s-24.4,1-38,1c-35.8,0-59-23.7-59-53
	C-423.9,251.8-400.2,228.1-371,228z"/>
<g>
	<g>
		<g>
			<path class="st1" d="M-354.9,258h-3.3c-1.5,0-2.8,1.1-3.1,2.6c-2.5,1.3-14.9,7.1-31.2,9.3c-0.9,0.1-1.7,0.6-2.2,1.3h-2.9
				c-1.8,0-3.2,1.4-3.2,3.2v6.6c0,1.8,1.4,3.2,3.2,3.2h2.9c0.5,0.7,1.3,1.2,2.2,1.3c0.2,0,0.3,0,0.5,0.1l5,18.1
				c0.4,1.4,1.7,2.4,3.1,2.4h6c0,0,0,0,0,0c0,0,0,0,0,0h1.1c0.6,0,1-0.5,1-1c0-0.6-0.5-1-1-1h-0.3l-4.6-16.5
				c10.8,2.6,18.4,6.3,20.4,7.2c0.3,1.5,1.6,2.6,3.1,2.6h3.3c1.8,0,3.2-1.4,3.2-3.2v-32.8C-351.7,259.4-353.1,258-354.9,258z
				 M-395.3,282.1h-2.3c-0.6,0-1.2-0.5-1.2-1.2v-6.6c0-0.6,0.5-1.2,1.2-1.2h2.3C-395.3,273.2-395.3,282.1-395.3,282.1z M-379.2,304
				h-4.6c-0.5,0-1-0.4-1.1-0.9l-4.8-17.3c2,0.3,4,0.7,5.8,1.1L-379.2,304z M-353.7,294c0,0.6-0.5,1.2-1.2,1.2h-3.3
				c-0.6,0-1.2-0.5-1.2-1.2v0c0,0,0,0,0,0V270c0-0.6-0.5-1-1-1c-0.6,0-1,0.5-1,1v22.4c-4-1.9-15.8-7-30.8-9c-0.6-0.1-1-0.6-1-1.2
				V273c0-0.6,0.4-1.1,1-1.2c15-2,26.8-7.1,30.8-9v2.7c0,0.6,0.5,1,1,1c0.6,0,1-0.5,1-1v-4.4c0,0,0,0,0,0v0c0-0.6,0.5-1.2,1.2-1.2
				h3.3c0.6,0,1.2,0.5,1.2,1.2V294L-353.7,294z"/>
		</g>
	</g>
	<g>
		<g>
			<path class="st1" d="M-336.3,276.6h-10.9c-0.6,0-1,0.5-1,1c0,0.6,0.5,1,1,1h10.9c0.6,0,1-0.5,1-1S-335.7,276.6-336.3,276.6z"/>
		</g>
	</g>
	<g>
		<g>
			<path class="st1" d="M-338.6,266.3c-0.2-0.5-0.8-0.8-1.3-0.5l-1.1,0.5c-0.5,0.2-0.8,0.8-0.5,1.3c0.2,0.4,0.5,0.6,0.9,0.6
				c0.1,0,0.3,0,0.4-0.1l1.1-0.5C-338.6,267.4-338.4,266.8-338.6,266.3z"/>
		</g>
	</g>
	<g>
		<g>
			<path class="st1" d="M-343,268.1c-0.2-0.5-0.8-0.8-1.3-0.5l-3.3,1.4c-0.5,0.2-0.8,0.8-0.5,1.3c0.2,0.4,0.5,0.6,0.9,0.6
				c0.1,0,0.3,0,0.4-0.1l3.3-1.4C-343,269.3-342.8,268.7-343,268.1z"/>
		</g>
	</g>
	<g>
		<g>
			<path class="st1" d="M-339.1,287.6l-1.1-0.5c-0.5-0.2-1.1,0-1.3,0.5c-0.2,0.5,0,1.1,0.5,1.3l1.1,0.5c0.1,0.1,0.3,0.1,0.4,0.1
				c0.4,0,0.8-0.2,0.9-0.6C-338.4,288.5-338.6,287.8-339.1,287.6z"/>
		</g>
	</g>
	<g>
		<g>
			<path class="st1" d="M-343.5,285.7l-3.3-1.4c-0.5-0.2-1.1,0-1.3,0.5c-0.2,0.5,0,1.1,0.5,1.3l3.3,1.4c0.1,0.1,0.3,0.1,0.4,0.1
				c0.4,0,0.8-0.2,0.9-0.6C-342.8,286.6-343,286-343.5,285.7z"/>
		</g>
	</g>
</g>
</svg>
